<mxfile host="65bd71144e">
    <diagram id="goznCJb-xNF-VDt3yUjD" name="Page-1">
        <mxGraphModel dx="2264" dy="876" grid="1" gridSize="10" guides="1" tooltips="1" connect="1" arrows="1" fold="1" page="1" pageScale="1" pageWidth="827" pageHeight="1169" math="0" shadow="0">
            <root>
                <mxCell id="0"/>
                <mxCell id="1" parent="0"/>
                <mxCell id="10" style="edgeStyle=none;html=1;entryX=0;entryY=0.25;entryDx=0;entryDy=0;strokeWidth=1;" parent="1" source="2" target="3" edge="1">
                    <mxGeometry relative="1" as="geometry"/>
                </mxCell>
                <mxCell id="2" value="A1" style="text;html=1;align=center;verticalAlign=middle;resizable=0;points=[];autosize=1;strokeColor=none;fillColor=none;strokeWidth=1;" parent="1" vertex="1">
                    <mxGeometry x="724.5" y="200" width="40" height="30" as="geometry"/>
                </mxCell>
                <mxCell id="8" style="edgeStyle=none;html=1;exitX=1;exitY=0.25;exitDx=0;exitDy=0;strokeWidth=1;" parent="1" source="3" target="5" edge="1">
                    <mxGeometry relative="1" as="geometry"/>
                </mxCell>
                <mxCell id="9" style="edgeStyle=none;html=1;exitX=1;exitY=0.75;exitDx=0;exitDy=0;strokeWidth=1;" parent="1" source="3" target="6" edge="1">
                    <mxGeometry relative="1" as="geometry"/>
                </mxCell>
                <mxCell id="3" value="Full Adder" style="whiteSpace=wrap;html=1;fillColor=#6d8764;fontColor=#ffffff;strokeColor=#3A5431;strokeWidth=1;" parent="1" vertex="1">
                    <mxGeometry x="813.5" y="200" width="120" height="60" as="geometry"/>
                </mxCell>
                <mxCell id="11" style="edgeStyle=none;html=1;entryX=0;entryY=0.75;entryDx=0;entryDy=0;strokeWidth=1;" parent="1" source="4" target="3" edge="1">
                    <mxGeometry relative="1" as="geometry"/>
                </mxCell>
                <mxCell id="4" value="B1" style="text;html=1;align=center;verticalAlign=middle;resizable=0;points=[];autosize=1;strokeColor=none;fillColor=none;strokeWidth=1;" parent="1" vertex="1">
                    <mxGeometry x="724.5" y="230" width="40" height="30" as="geometry"/>
                </mxCell>
                <mxCell id="5" value="Sum1" style="text;html=1;align=center;verticalAlign=middle;resizable=0;points=[];autosize=1;strokeColor=none;fillColor=none;strokeWidth=1;" parent="1" vertex="1">
                    <mxGeometry x="1009.5" y="200" width="50" height="30" as="geometry"/>
                </mxCell>
                <mxCell id="6" value="Carry" style="text;html=1;align=center;verticalAlign=middle;resizable=0;points=[];autosize=1;strokeColor=none;fillColor=none;strokeWidth=1;" parent="1" vertex="1">
                    <mxGeometry x="1009.5" y="230" width="50" height="30" as="geometry"/>
                </mxCell>
                <mxCell id="16" style="edgeStyle=none;html=1;endArrow=none;endFill=0;strokeWidth=1;" parent="1" source="12" target="13" edge="1">
                    <mxGeometry relative="1" as="geometry"/>
                </mxCell>
                <mxCell id="12" value="" style="pointerEvents=1;verticalLabelPosition=bottom;shadow=0;dashed=0;align=center;html=1;verticalAlign=top;shape=mxgraph.electrical.signal_sources.signal_ground;strokeWidth=1;" parent="1" vertex="1">
                    <mxGeometry x="720" y="372" width="99" height="70" as="geometry"/>
                </mxCell>
                <mxCell id="14" style="edgeStyle=orthogonalEdgeStyle;html=1;entryX=0.25;entryY=1;entryDx=0;entryDy=0;rounded=0;curved=0;strokeWidth=1;" parent="1" source="13" target="3" edge="1">
                    <mxGeometry relative="1" as="geometry"/>
                </mxCell>
                <mxCell id="13" value="Cin" style="text;html=1;align=center;verticalAlign=middle;resizable=0;points=[];autosize=1;strokeColor=none;fillColor=none;strokeWidth=1;" parent="1" vertex="1">
                    <mxGeometry x="749.5" y="302" width="40" height="30" as="geometry"/>
                </mxCell>
                <mxCell id="17" style="edgeStyle=none;html=1;entryX=0;entryY=0.25;entryDx=0;entryDy=0;strokeWidth=1;" parent="1" source="18" target="21" edge="1">
                    <mxGeometry relative="1" as="geometry"/>
                </mxCell>
                <mxCell id="18" value="A2" style="text;html=1;align=center;verticalAlign=middle;resizable=0;points=[];autosize=1;strokeColor=none;fillColor=none;strokeWidth=1;" parent="1" vertex="1">
                    <mxGeometry x="334.5" y="200" width="40" height="30" as="geometry"/>
                </mxCell>
                <mxCell id="19" style="edgeStyle=none;html=1;exitX=1;exitY=0.25;exitDx=0;exitDy=0;strokeWidth=1;" parent="1" source="21" target="24" edge="1">
                    <mxGeometry relative="1" as="geometry"/>
                </mxCell>
                <mxCell id="20" style="edgeStyle=none;html=1;exitX=1;exitY=0.75;exitDx=0;exitDy=0;strokeWidth=1;" parent="1" source="21" target="25" edge="1">
                    <mxGeometry relative="1" as="geometry"/>
                </mxCell>
                <mxCell id="21" value="Full Adder" style="whiteSpace=wrap;html=1;fillColor=#6d8764;fontColor=#ffffff;strokeColor=#3A5431;strokeWidth=1;" parent="1" vertex="1">
                    <mxGeometry x="423.5" y="200" width="120" height="60" as="geometry"/>
                </mxCell>
                <mxCell id="22" style="edgeStyle=none;html=1;entryX=0;entryY=0.75;entryDx=0;entryDy=0;strokeWidth=1;" parent="1" source="23" target="21" edge="1">
                    <mxGeometry relative="1" as="geometry"/>
                </mxCell>
                <mxCell id="23" value="B2" style="text;html=1;align=center;verticalAlign=middle;resizable=0;points=[];autosize=1;strokeColor=none;fillColor=none;strokeWidth=1;" parent="1" vertex="1">
                    <mxGeometry x="334.5" y="230" width="40" height="30" as="geometry"/>
                </mxCell>
                <mxCell id="24" value="Sum2" style="text;html=1;align=center;verticalAlign=middle;resizable=0;points=[];autosize=1;strokeColor=none;fillColor=none;strokeWidth=1;" parent="1" vertex="1">
                    <mxGeometry x="619.5" y="200" width="50" height="30" as="geometry"/>
                </mxCell>
                <mxCell id="25" value="Carry" style="text;html=1;align=center;verticalAlign=middle;resizable=0;points=[];autosize=1;strokeColor=none;fillColor=none;strokeWidth=1;" parent="1" vertex="1">
                    <mxGeometry x="619.5" y="230" width="50" height="30" as="geometry"/>
                </mxCell>
                <mxCell id="28" style="edgeStyle=orthogonalEdgeStyle;html=1;entryX=0.25;entryY=1;entryDx=0;entryDy=0;rounded=0;curved=0;strokeWidth=1;" parent="1" source="29" target="21" edge="1">
                    <mxGeometry relative="1" as="geometry"/>
                </mxCell>
                <mxCell id="29" value="Cin" style="text;html=1;align=center;verticalAlign=middle;resizable=0;points=[];autosize=1;strokeColor=none;fillColor=none;strokeWidth=1;" parent="1" vertex="1">
                    <mxGeometry x="359.5" y="302" width="40" height="30" as="geometry"/>
                </mxCell>
                <mxCell id="34" value="Ground" style="text;html=1;align=center;verticalAlign=middle;resizable=0;points=[];autosize=1;strokeColor=none;fillColor=none;" parent="1" vertex="1">
                    <mxGeometry x="739.5" y="450" width="60" height="30" as="geometry"/>
                </mxCell>
                <mxCell id="35" value="Clara Tyman&#xa;May 2025&#xa;TEJ3M&#xa;Unit 4-19" style="text;align=left;verticalAlign=middle;resizable=0;points=[];autosize=1;strokeColor=none;fillColor=none;fontFamily=Helvetica;fontSize=14;fontColor=default;labelBackgroundColor=default;flipH=1;flipV=1;rotation=0;" parent="1" vertex="1">
                    <mxGeometry x="390" y="80" width="100" height="80" as="geometry"/>
                </mxCell>
                <mxCell id="38" style="edgeStyle=orthogonalEdgeStyle;shape=connector;curved=0;rounded=0;html=1;entryX=-0.072;entryY=0.506;entryDx=0;entryDy=0;entryPerimeter=0;strokeColor=default;strokeWidth=1;align=center;verticalAlign=middle;fontFamily=Helvetica;fontSize=11;fontColor=default;labelBackgroundColor=default;endArrow=classic;" edge="1" parent="1" source="6" target="29">
                    <mxGeometry relative="1" as="geometry">
                        <Array as="points">
                            <mxPoint x="1035" y="500"/>
                            <mxPoint x="320" y="500"/>
                            <mxPoint x="320" y="317"/>
                        </Array>
                    </mxGeometry>
                </mxCell>
                <mxCell id="42" value="" style="shape=image;verticalLabelPosition=bottom;labelBackgroundColor=default;verticalAlign=top;aspect=fixed;imageAspect=0;image=data:image/png,iVBORw0KGgoAAAANSUhEUgAAAcsAAAHhCAIAAACOVwJAAAAAAXNSR0IArs4c6QAAIABJREFUeJzsnXlcE9f6/08gUAyKFdzY9NYFBazUsqhgWJOILGIVtFSvQNVyW0XUYtXiRa2o1GJ7rW2hrVBRq6iVCLIoaiPIIgRbrYqytAkkQhWQRZTIkvn9Mb9vXmlACJk5ZEbP+6/MmZnP+cyZZ54kZ87MYRQXFwMEAoFAQEBH2wYQCATipQVlWAQCgYAFyrAIBAIBC5RhEQgEAhYMDMMKrxe5zHGGV0dtbe2ECRPg6a9cuXLYsGHkanZ0dBw9epRcTWVQm5AC7GaECq3NvyIBRhz0GxaBQCBggTIsAoFAwAJlWAQCgYAFyrAIBAIBC5RhEQgEAhYowyIQiFeUzs7Ozs5OqLLM/jfFMOzYsWMYhr333nt6enq912ZlZd28ebOnp2f69OmLFy/uvQ0RfZzCwsKqqqqlS5eyWKxBiZPLjRs3bt++jX9mMBj6+vrm5uZOTk4GBgbKm2ncJmrq41CkTRRUVVVdunRJIpG89tprEyZM8PPzGzt2LBX8MBiMcePGsdnst99+e2iqJn5RaNE8DnWiS/mi0NHRGTly5JQpU2xsbBgMBin6zs7OTCbz+vXrpKgpcHV17e7uLisrGzjDXrx4MSQkBADAYrGCgoKUV7W0tPB4PKFQaGtrq6Ojc+fOncmTJ+fm5r7xxhvqW+lHHwDw7NmzLVu2fPvttxiGcTgc7Z7vM2fOfP755/r6+vjZ7ezsxDBs5MiRBw8exA+BYJuoo0+1NgEAPHnyJDw8PDU1lclk/utf/3r+/LlUKtXV1V2/fv3nn3+uq6tLUF8qlcbGxiYmJqq5PYZh69ev//bbb01MTKytrZlM5v379zds2ODj43PmzBnYzUXwotCueQpGl/JFgWEY/sPQ3Nz8k08+iYiIIJ5nP/roIx0duP/jB1BPTEycOXOmk5PT999/r7Jq/fr1t27dunTp0p07d/74449Lly6JRKKtW7cOqvp+9Gtra2fNmiUQCJYtWzYoTajcunVL9n8UFBQYGxuvXr26trYWX0u8TfrXp1qbdHd3+/j4pKambt26taGhobKysqampra29t133z1w4MDGjRuJV5Gfn3/8+HH1tz99+vQ333yzcePGurq6/Pz8X3/9VSqV7t+/Pzs7e9++fcT99A/BANCueapFlwL8onj+/PmTJ0+uXLliZ2cXGRkZHByMYRhB5ffffz80NJQkm33T329YqVSamZm5Z88eFosVGRlZXV09ZcoUxdr29vbw8HAOh4Mvenl52dvbl5aWql93//pVVVVcLjc+Pj4+Pl6jQ4OLvr6+i4vLhg0bIiMjb9++jT+cQ7xN+tenWpv8+OOPBQUFMTExu3btUhSam5sfPXq0ubm5srKyo6MDf/KnsbExJSXljz/+wDDMxsYmNDR0/Pjx+Pbfffcdi8VSDnRFydGjR5OSkjo7O3fu3GllZfXee+8NaKmgoAAA8Mknnyj+m+vo6GzevFkul9va2g5YI35Qw4cP9/Hx+eabb+7du2dpaRkREWFmZnbx4sWzZ88yGAwfH5+AgIA+aycYANo1T7Xo6s3w4cM9PT09PT3Xrl373XffzZ8/PywsDF/V2tp65MiR33//HcMwOzu7999///XXX1fs2NjYmJSUdOfOnZEjR/J4vIULF+LlP/zwg46OzurVqzVoOqlUeuzYserqah0dnTfffHPVqlWGhoa9Pff3G/bHH3/EH48LDg7W09PDFxWkpaV9/fXXyiXPnz8fNWqU+u3Vv76Hh8c333zTZy8kdWhqagIA/Otf/8IXibdJ//pUa5MjR44YGRlt2bKl96rz589fuHABT6/l5eU2Njbx8fEsFuv1119PSEiwtrb+7bff8C2/++67I0eOKO+rKJFIJLW1tRiG3b9/XyqVqmPJwsICAHD16lWV8i1btvj5+Q1YIwDg2LFjP/74o6+v7x9//KGjo/Pll19yOJzvv/8+KipKR0fn+vXrixYt4vP5fdZOMAC0a55q0dUP+/fvHzVq1LfffosvikSiN998MzY2dvjw4SNHjvziiy9mzJghEonwtVVVVTNmzPj66691dXVra2sXLVq0atUqfNUPP/xw+PBh/POgmu63336zsbFJSkpisVgYhsXExLz11lvt7e29rb7wN2x3d3dSUpKPj4+pqSkAYOHChT/99NPu3bv19fX73D4nJ+fWrVsHDx5Us40G1IfdP6IZDx8+HD58OACgra2toKDgyy+/XL16teL3hQqDbZMB9SnVJj09Pb/99punp+eAvXXr1q3DN8YzyH//+9+ZM2dGREQUFhb2v2N0dHRVVdUvv/ySmpqqpqvQ0NAvv/wyODj43Llzfn5+bDZ7sM/+6+jo5OXlpaSkrFixAgAwffr06Ojo5OTkGzdu6OvrP3v2bPz48SdPnnznnXcGlBpsAGjXPKWiq38MDQ3d3NwyMjKeP3/+2muvRUREtLS03LlzB2+ubdu2WVtbb968+ZdffsG7bnR1dW/evDlmzBgAQFxc3LZt21atWuXs/I+XsQyq6fCuaqFQiH99Ll++3NPTMyUlZe3atSpWX9imGRkZDx48UCT7VatWNTQ0vOjbTygULl++fP78+b0rIEWfOri7u1taWlpaWtra2oaHh/v4+MTGxva5pQZtMih9rdPa2trd3a34s/8impubBQLB4sWL8fQKABgzZsySJUuKiorwX+jkMm7cuNLS0pCQkMzMzBUrVkycOHHy5Mnr1q27d++e+iJGRkbLly/HP7/11lsAgPfeew//7mexWFOmTHnw4MGAIhoEAHXMUx9TU1O5XP748eMnT57k5OQEBwcrvo1MTU0DAwPPnz/f2dnZ1taWm5v7zjvv4OkVv7tVUFAwbdq03prqN11SUlJbW5vi3wmerCsqKnprvjDDJiYmjhs3ztfXF1/k8XiWlpa970cBAPh8vru7u7Ozc1pamvr3jtXXpxS//PKLUCgUCoWFhYUnTpx4+PChtbV1fn6+ymaatYn6+lQA/60tk8n636y6uhoAoBLQkydPxv/cwTA2ceLEn376qampKT8/PzY2duLEiYmJiXZ2didPnlRTwcLCQnGfGv+Frvh6wEueP3/ev4LGAUAF87SgtbUVADBy5Mjq6mq5XF5WVhaqxO+//97Z2SkWi//880+5XD5p0iTFjkZGRi4uLiYmJr011W86DMP4fP6qVas4HI6zs7Orqys+/qe3Zt8Z9s8//7x8+fLjx4/Hjx8/evTo0aNHjx079uHDhwKBoKqqSnnL/fv3L1myZPXq1enp6eqP7VBfn2rY2to6ODg4ODg4OzsHBwdfunTJxMTko48+Ut5GszZRX58i6Ovrjx8/XjFc8UXgYacysAb/XQBjsLdyFWw2Ozo6+tdff719+7apqemHH37Y3d2tzr69c+KgsiSRAMDRonm68Pvvv5uamrJYLDyKhg0bNlyJuXPnrl27VrFWzVEH6jddZGRkYGDg8+fPg4KCIiMjP/nkkxdp9t0Pm5iYiGHYgQMHRowYoSjs6OhYu3btDz/88MUXX+Al8fHxW7duPXTo0KD+CKuvT3309PRsbW0zMjK6u7uZTCaRNlFTn1L4+vomJSWVlJTMnj1bZVVeXl5eXt6mTZvwRw8ePnyovLahoQHvLsCTr8oF0NzcPHr0aM0sPXjwoLOzU2X8qbW19XvvvRcXF1dbWztp0iRya1SBSABo3TxduHr16r179yIjIwEAeICx2ew+B7ThvzpVwo8gjY2Nhw4d+vDDD7/77ju8BP9B3Sd9/IZ9/vz5kSNH2Gx2RESE8g/vDz/80MvL68iRI7hpgUCwefPmgwcPDjaS1NSnBU+ePBEKhWZmZnj607hN1NSnGpGRkfr6+u+//z6eMRXU1NSEhoampKTo6OhMnjx53Lhxly5dUt5AIBCMHTsWH5zHYrGUd6+qqqqvr1feWP1hj0+fPrW1tQ0MDOzq6lJZdePGDT09PTynD1ijxhAJAK2bpwsVFRWhoaGjRo2KiooCALzxxhvm5uYXL15U3ubatWs3btwAAEyaNGn8+PG5ubmKVWVlZebm5mfPntXYgEQiwb/5FCXHjh17UaD2cd2eOXOmsbERHyOmwurVq9999920tLSgoKC1a9daWlqOGTNG5T7vokWL+h/woY5+cHBwSUkJ3k+H/w/NyMgwNjYGAPj7+/c57mxoyM7OvnnzJj4WAh8QV1dXh48z6+7u1rhN1NEHAFCtTd58881Dhw599NFHdnZ2GzZsmD17dnd3d1FR0ddff81gMLKysvD/yJ988snHH3+8bdu2DRs29PT0fPvtt/n5+QcOHMC7Duzt7RMSEo4dO+bj4/Pnn39u2rRp4sSJiipGjRr17NmzK1eu/Otf/8J7b/vB0NBw165dGzZs8PDwWL9+/fTp0/X09MRi8eHDhy9duhQVFYX/Z+q/Ro0hGADaNU/B6FKguCiam5tLS0tPnTo1bNiwM2fOKDpJt27dGhERsW7dus2bN7/++us5OTnh4eGBgYFJSUkMBuPjjz/evHnzhg0bPvroo5aWlo8++qizs5PNZmvsZ8qUKSwW68SJE++8846BgcGJEyfOnz8/bty48vLy3v81+8iwiYmJI0eO7P0MKwDgnXfeGT169Pfff+/h4YHf3wwODlbZpr6+vv/7y+roBwcHJyQkpKSkKFYpfhSIRCItnu+PP/4Y/6Crq2tmZmZnZ/ftt9+6u7vj/x00bhN19AEAFGyTDz74YPr06fv27fv00097enrwH1nvvvtuTEyM4srftGmTTCbbv39/XFwcnjTj4uI2bdqEr42Ojr558+bKlSvxfoMffvghMTFR8bfr3//+908//cThcKZNm3b//v0B/URGRpqZmX311VfKDyZZW1t/9913//nPf9SpUWOIB4AWzVMzunAUF4WhoeGECRMiIiIiIiKU70GtW7euu7t7z549+AhZ/PmLAwcOKHZ/+vRpfHw8Pmzurbfeys7OJvLejBEjRvzwww8ffvihpaUlg8Hw9vb++eefv/nmm927dxsYGKh0l6N5uvoGzdPVm/7bpKurq66ujslkmpqa9jmysru7u7a2lsFgTJgwofcNhMbGxra2tgkTJvTuD3n+/HlTU9P48eN7y/bTjJ2dnX///bdMJhs3btzIkSN7b9BPjUMDrc1T8KKTy+X48+VmZma9h+13dnZKJJKRI0eS1Wfd1dUlkUhef/11/Jc+/kTfa6+9pvKiHyr27iHoiJ6eXv9/V5lMpvKgGRXwISV9rnrttdfMzMwG60dfX7//77B+atQ6tDavLXR0dBRPP/ZGX19/wF6mQaGnp6cSz/j4RVVXJFaJQCAQCGVQhkUgEAhYoAyLQCAQsEAZFoFAIGCBMiwCgUDAgll4vQgAUFn9J9RqYOt3dHSQKxgbG6uYWQASsPXp2CYaQEFL6kNr86QHGN0bpE+YLnOcC68XWVpawqtDIpFA1cff+0C6JtTxqrDHw9KxTTRgCJoRHrQ2DyPAOjo6aN0gfYJ6CRAIBAIWKMMiEAgELFCGRSAQCFigDItAIBCwQBkWgUAgYIEyLAKBQMCC6Lu15HL5hZycGzfKMAyzt3dY4OND7pzAsPVhIJfLs7KyhEIhhmGOjo5+fn6ktwlUfepQW1vL5/Pr6upMTU0XL15Mo6E8tD5HlDJP0AyRECKlHQg1nEwm8/NZEBS45OLFi5cvX14aFBjg70fi9Haw9WEgk8m4XG5AQEBOTk5ubu6iRYu8vb3JbROo+tQhPT19+vTpe/fuLS0tjYuLs7a2zsrK0rYptaD1OaKUeYJmiIQQWe1AKMMeiP8iPz//XHpGQWFR/rWC9POZAoHgf199RURzKPVhEBcXd/Xq1ezsbKFQWFJScuHChStXrsTHx9NFnyK0tLSEhIQ4OzuLxWKBQCAWi+fOnRsSEvLkyRNtWxsYWp8jSplX00xFRcWZM2dUCgmGEFntQCjDphw5wuXxuDwevsjhcDw9PY/8lExEcyj1YZCcnOzt7e3t7Y0v8ng8Dodz+PBhuuhThLNnz7a2tu7btw9/cMjAwGD37t1NTU18Pl/b1gaG1ueIUubVNCMQCDZu3KhSSDCEyGoHzTPsgwcPpFLpvHn/mFDMZR5bLBaTMvklbH0YSKVSiUTi6uqqXOjq6ioSierq6qivTx2Ki4tZLJa9vb2ixMnJycDAoKCgQKu+BobW54hS5gma6T+EYmJi3noBjx49IrEdNL/TVVMjBgCovHDAcoIlAEAsFpmammqsPDT6MBCLxb0f3scXRSKRBlOhDLE+dRCLxRYWFso3FvCpIfHJUKkMrc8RpcwTNNN/CDk6Ovaeywtn2LBhlZWVZLWD5hn2aftTfPZH5ULWMJZiFUFg68Ogvb29D88slmIVxfWpQ3t7e+/5TVksFvUPk9bniFLm+zfT2NgYFRWFF1ZUVDQ3N4eGhuKLbm5uYWFh/YeQv7+/v7+/ZlUP6ig0z7C6TCYAAJ/AWQG+qEvG/Jew9WHAfLFnUuYEha1PHZhMZu+X4/X09FD/MGl9jihlvn8zGIbJZDK8sLu7W3mxq6uLYAiR2A6at5qJsTEA4HHzY+XCx4+bAACjTUw0lh0yfRiYmJgAAB4//ofnpqYmfHJQ6utTBxMTk5qaGpXCpqamadOmacmRutD6HFHKfP9mxowZk5qaihcmJibGxsYqFhW79xNCZWVleC9Eb3x9fUlsB80z7JSpU5lMZsX9+8qF5eXlenp6U6ZO1Vh2yPRhYGVlxWQy7927p1x49+5dPT09Kysr6utTB1tb28zMzNbW1pEjR+IlDQ0Njx49mjFjhratDQCtzxGlzBM0038IJSQkpKSk9LljTU0Nie2g+VgCQ0NDV1fXjPR0/Dc5PkY3Iz3d08uLlFfzwtaHgaGhobu7O5/PV/bM5/O5XC5ZbQJVnzr4+vrK5fKzZ88qSk6ePAkAWLhwoVZ9DQytzxGlzBM0038IJSUldb8Ac3NzEtuB0HjYbdHRtbW174eF3rl9+49bt0JW/ruxsTE6ejsRzaHUh0FMTExNTc2KFSv++OOPmzdvBgcHNzQ07Nixgy76FMHFxYXH40VFRZ06derPP//8+eeft2/fvnDhQkdHR21bGxhanyNKmVfTDJvNjo2NVSkkGEJktQOh3msXl3nHjv8c9fEmJ0cHfGRV6qnTDuRdA7D1YcBms0+dOhUZGWlnZ4eP8EhLS3NycqKLPnVITU0NDw9fvnw5fndi2bJlCQkJ2jalFrQ+R5Qyr6YZW1tbW1vb3rsTCSGy2oGBYVjh9aK3ZzkMdk8FcrlcKpUyGAwLCwsGg9F7A4LzdA2oH75mNel/YaKjo4m8Z0Qul0skEgaDYWlp2adngnM0Dai/cuVKqrWJZrS1tT18+HD8+PEjRozovZbKU13BjgGoaCXAOjo6jh49qoGZ/uk/hPqHYNUkvFsLAKCjowM1UGDrw0BHR2fixIn01acORkZGRkZG2nahCbQ+R5QyT9AMkRAi3g60eaMaAoFA0A6UYREIBAIWKMMiEAgELFCGRSAQCFigDItAIBCwYBZeLwIANDz8G14dBvp6UPXxcR7kCso6uyqr/yRXUwXY+nRsEw2goCX1obV50gMMH8FGuqZ2YbrMcS68XgR1ONQQjPuD8UgfkTG8A0JwjLA60K5NNGAImhEetDYPI8A6OjpoNy5zQFAvAQKBQMACZVgEAoGABcqwCAQCAQuUYREIBAIWKMMiEAgELFCGRSAQCFgQfbeWXC7PysoSCoUYhjk6Ovr5+SlPn0sc2PowkMvlF3JybtwowzDM3t5hgY8PDM/FxUXV1dVLlgTiU2C+lEgkkoz09Pr6uvHjTQMWLaLR2KahiQGoUCTAiGeAJ0+enDt3bvLkyc7OzkNcNdHfsDKZjMvlBgQE5OTk5ObmLlq0yNvbu7Ozk4jmUOrDQCaT+fksCApccvHixcuXLy8NCgzw9yPX87NnzzZt3MDx9Axfs6a5uZlEZUqRef78WzPf3P95XJmwLP6L/bPsZl7IydG2KbUYghiACnUCjHgGuHbtmp2d3cqVK5OTk4e4ahxCGTYuLu7q1avZ2dlCobCkpOTChQtXrlyJj48nojmU+jA4EP9Ffn7+ufSMgsKi/GsF6eczBQLB/776iix9iUQyd7ZTXl5eYFAQWZoUpLWlZfXqVXPmzLlfWXUhN/d+ZdXs2bNXr1r15MkTbVsbGNgxABVKBZiaGaCiouLMmTO9d9+7d6+Xl9eKFSt0dXUhVT0ghDJscnKyt7e3t7c3vsjj8TgczuHDh4loDqU+DFKOHOHyeFweD1/kcDienp5Hfhrc92c/VFdXe3p5FRYVW1vbkKVJQfjn+G2trZ/tjsUfHDIwMIjZufPx46aMjHRtWxsY2DEAFUoFmJoZQCAQbNy4sffu5eXlv/7662effQav6gHRPMNKpVKJROLq6qpc6OrqKhKJ6urqNJYdMn0YPHjwQCqVzpvHVi50mccWi8X19fWkVOHm5vbV/w4aGBiQokZZSq+XsFisWW+/rShxcHA0MDAoKizSqq+BGYIYgAp1Aox4Bjh69Oi8efP6XBUTE/PWC3j06BGJyUfzO11isRifIEy5EF8UiURmZmYaKw+NPgxqasS9H963nGAJABCLRaampsSroN0NE82oqRGbm5srH6yurq6pqWmNWKRVXwMzBDEAFeoEGPEM0M+xODo66uvr97lq2LBhlZWVZCUfzTNse3s7Pqe5ciF+2xFfRRDY+jB42v60D8/DWIpVCDVpb3/K+mczAgCGsVjtlG9GFANk0X8GaGxsjIqKwgsrKiqam5tDQ0PxRTc3t7CwsP7F/f39/f39Nat6UEeheYZlMpkAgJ6eHuVCfBFfRRDY+jDQfbFnXap6piZMJrNDpvpyPHlPD2VPvQIUA2TRfwbAMEwmk+GF3d3dyotdXV1Qqx6clMYmTExMAACPHz9WLmxqagIAjB49WmPZIdOHgYmxMQDgcfM/PD9+3AQAGG1ioj1f9MPYxLi2tkalsKmpaaqVlZYcqQuKAbLoPwOMGTMmNTUVL0xMTIyNjVUsqkNZWRneC9EbX19fEpOP5hnWysqKyWTeu3dPufDu3bt6enpWZFwGsPVhMGXqVCaTWXH/vnJheXm5np7elKlTteeLftjY2ORkZ7e1thqNHImXNDY2NDQ02NraatvaAKAYIAuoGSAhISElJaXPVTU1NSRWrXmvtqGhobu7O5/PV/wml8lkfD6fy+WS8mpe2PowMDQ0dHV1zUhPV/ackZ7u6eVFWc/UxHvBArlczj/HV5ScPnUaAODr66dVXwODYoAsoGaApKSk7hdgbm5OYtWEOoZiYmI8PDxWrFgRHR0tl8t37drV0NCwY8cOIppDqQ+DbdHR3jze+2GhW7Zslcvle/bENjY2RkdvJ0tfKCwVi8QAgLt37wAAsjLPjxplDADw8fU17HVriL7MnevM4XC2bd1qyDJ8296+tKRk184dvn5+9g4O2rY2MLBjACqUCjA1MwCbzY6NjVUpfPr06fnz5/HPGIb99ddfeDfCG2+8MXv2bLKqHhBCGZbNZp86dSoyMtLOzg4fzZCWlubk5EREcyj1YeDiMu/Y8Z+jPt7k5OiAj9pJPXXawdGRLP0fv//h+PFjisUNkZH4h3sVlS9ThgUAHD12fN26tWGhIT09PUwmMzAo6ODXh7RtSi1gxwBUKBVgamYAW1vb3t1HDQ0NwcHBikWBQCAQCAAAISEh6mRYspIPA8OwwutFLnMG904EZeRyuUQiYTAYlpaWDAaj9wYE5+kaUH/lypWk///6ePMnRN4zIpfLpVIpg8GwsLDo0zPsOZrC16ymWptoRltb26NHj8aNGzdixIjea6k81ZXWYwAqMAKso6Pj6NGjvcsHzADwIF41CcNHdHR0Jk6cSFxHW/ow0NHRefnmdNMKRkZGRkZG2nahCSgGyEKLGYB41VR5fgOBQCBePlCGRSAQCFigDItAIBCwQBkWgUAgYIEyLAKBQMCCWXi9CABQWf0n1Gpg63d0qL4lhCAG+noND/8mV3Mo9enYJhpAQUvqQ2vzMAIMH9lJuqZ2YbrMcS68XgR1XN4QjPuD8Twi1KE2BMcIqwPt2kQDhqAZ4UFr8zACrKOjg9YN0ieolwCBQCBggTIsAoFAwAJlWAQCgYAFyrAIBAIBC5RhEQgEAhYowyIQCAQsiL5bSy6XX8jJuXGjDMMwe3uHBT4+5M4GDFsfHoWFhVVVVUuXLsWnqCQRuVyelZUlFAoxDHN0dPTz86NLmwyW2tpaPp9fV1dnamq6ePFi2g3lgRcDUKFUgBE0U1tbm5mZKZVKTU1Nvby8bGxs1N8Xw7CsrKybN2/29PRMnz598eLFenp6g/VPqOFkMpmfz4KgwCUXL168fPny0qDAAH+/zs5OIppDqQ+JZ8+eRUREsNnssLAwlcnUiCOTybhcbkBAQE5OTm5u7qJFi7y9vanfJhqQnp4+ffr0vXv3lpaWxsXFWVtbZ2VladuUukCNAahQKsAImklOTp42bdr27duvXLmya9eumTNn7ty5U819W1paZs+e7e/vn5qaevbs2eDgYBsbG5FINNhDIJRhD8R/kZ+ffy49o6CwKP9aQfr5TIFA8L+vviKiOZT6MKitrZ01a5ZAIFi2bBkM/bi4uKtXr2ZnZwuFwpKSkgsXLly5ciU+Ph5GXVqkpaUlJCTE2dlZLBYLBAKxWDx37tyQkJAnT55o29rAwI4BqFAqwNQ0U1FRcebMGZXCysrK8PBwDocjkUhKSkokEgmPx9u1a1d5ebk6Va9fv/7WrVuXLl26c+fOH3/8cenSJZFItHXr1sEeAqEMm3LkCJfH4/J4+CKHw/H09DzyUzIRzaHUh0FVVRWXyy0rK4M0K2pycrK3t7e3tze+yOPxOBzO4cOHYdSlRc6ePdva2rpv3z78wSEDA4Pdu3c3NTXx+Xw19tYysGMAKpQKMDXNCASCjRs3qhTev3/fwcEqI0bFAAAgAElEQVRh3759+OQ3w4YNi4iIAAAIhUJ1qm5vb8cTNL7o5eVlb29fWlo62EPQPMM+ePBAKpXOm8dWLnSZxxaLxfX19RrLDpk+JDw8PL755hsDAwMY4lKpVCKRuLq6Khe6urqKRKK6ujoYNWqL4uJiFotlb2+vKHFycjIwMCgoKNCqL7WAGgNQoVSAETSzcOHC4uLiGTNmKEqeP38OABg1ahQ+0eFbL+DRo0cAgLS0tK+//lpZ8Pnz5/i+g0LzO101NWJ8ljflQssJlgAAsVhkamqqsfLQ6EMC6j0BsVjc++UA+KJIJDIzM4NX9RAjFostLCyUG1NXV9fMzEyDjrChh743HikVYOSa6e7ujo+PNzMz43K5AABHR0d9ff0+t+zzfQs5OTm3bt06ePDgIA+CQIZ92v4Un9NcuZA1jKVYRRDY+nSkvb29jzZhsRSrXhra29t7z2zKYrFessOkGpQKsP7NNDY2RkVF4YUVFRXNzc2hoaH4opubW1hYmPJe3d3da9asEQqFOTk5eAL19/f39/dX04lQKFy+fPn8+fPXrl072KPQPMPqMpkAgJ6eHuVCfBFfRRDY+nSE+eI2Yb5cbcJkMnu/HA+f1ltLjl4JKBVg/ZvBMEwmk+GF3d3dyotdXV3Ku7S1tS1durSgoODcuXOenp6DtcHn81esWOHh4XH69GldXd1BH8Vgd1BgYmwMAHjc/I+RKI8fNwEARpuYaCw7ZPp0xMTEBACgMvqnqakJADB69Gjt+SIfExOTmpoalcKmpqZp06ZpydErAaUCrH8zY8aMSU1NxQsTExNjY2MVi8rU1tYuWLCgra3t2rVrs2bNUpSXlZXhvRC98fX1VXQU7N+/f+vWrREREV9++aUG6ZVQhp0ydSqTyay4f1+5sLy8XE9Pb8rUqRrLDpk+HbGysmIymffu3VMuvHv3rp6enpWVlfZ8kY+trW1mZmZra+vIkSPxkoaGhkePHinfuECQDqUCjLiZv//+28vLy9DQsLS0VOXOTUJCQkpKSp971dTUmJubAwDi4+O3bt166NAhDToHFGjeJW9oaOjq6pqRnq74TS6TyTLS0z29vEh5NS9sfTpiaGjo7u7O5/OV24TP53O53JesTXx9feVy+dmzZxUlJ0+exG8Qa9XXSw6lAoy4mXfffZfBYFy5cqX3jfGkpKTuF4CnV4FAsHnz5oMHDxJJr0Sfmt0WHe3N470fFrply1a5XL5nT2xjY2N09HYimkOpD4OSkhL8fvft27cBABkZGcbGxnjPeu9bNxoQExPj4eGxYsWK6OhouVy+a9euhoaGHTt2kOGdQri4uPB4vKioKENDQwcHh+vXr2/fvn3hwoWOjo7atjYwsGMAKpQKMDXNsNns2NhYlcITJ07k5eVt3Ljx0qVLyuVTpkxxcHDov97u7u61a9daWloq90XgLFq0aFDj8AhlWBeXeceO/xz18SYnRwd8ZFXqqdMO5F0DsPVhoPLvQ/EFKBKJSLm62Gz2qVOnIiMj7ezs8MEraWlpTk5OxJWpRmpqanh4+PLly/EbXMuWLUtISNC2KbWAHQNQoVSAqWnG1ta298Md+fn5AICvej0CGh4ePmCGbWxsxHsngoODVVbV19ePHz9e/UNgYBhWeL3o7VkDVNkPcrlcKpUyGAwLCwsGg9F7A4LzdA2oH75mNel/YaKjo6k8T5dcLpdIJAwGw9LSss82WblyJe3apE/a2toePnw4fvz4ESNG9F5L66muqGxeKwHW0dFx9OhRDcxQGRJGYOjo6EANFNj6dERHR2fixInadjEUGBkZGRkZadvFKwelAoxSZgYLXR8+QSAQCOqDMiwCgUDAAmVYBAKBgAXKsAgEAgELlGERCAQCFszC60UAgIaHf8Orw0BfD6o+Ps6DXEFZZ1dl9Z/kaqoAW5+ObaIBFLSkPrQ2T3qA4SPYSNfULkyXOc6F14uoPPZTHWA80kdkDO+AEBwjrA60axMNGIJmhAetzcMIsI6OjpdvXCbqJUAgEAhYoAyLQCAQsEAZFoFAIGCBMiwCgUDAAmVYBAKBgAXKsAgEAgELou/WksvlWVlZQqEQwzBHR0c/Pz9ypzKGrQ+P4uKi6urqJUsC8dkxaadPBSQSSUZ6en193fjxpgGLFtFubBOtzxFFzBPMABUVFRcvXqyvrzc3N58/f/7UwUxA1d3dzefzy8vLdXV1ra2tAwICNJgOklC2kslkXC43ICAgJycnNzd30aJF3t7enZ2dRDSHUh8Sz54927RxA8fTM3zNmubmZtrpU4TM8+ffmvnm/s/jyoRl8V/sn2U380JOjrZNqQutzxF1zBPMAHv27LG1td27d++vv/4aExNjY2OzZ88eNfeVSqU2NjbBwcHnzp07efJkYGDgjBkzNHggglCGjYuLu3r1anZ2tlAoLCkpuXDhwpUrV+Lj44loDqU+DCQSydzZTnl5eYFBQXTUpwitLS2rV6+aM2fO/cqqC7m59yurZs+evXrVqidPnmjb2sDQ+hxRyryaGaCiouLMmTMqhYWFhdu3b//ggw+kUmlJSUltba2rq+t///vfiooKdaoOCwtrbGy8efPm77//fvfu3aysrMrKym3btg32EAhl2OTkZG9vb29vb3yRx+NxOJzDhw8T0RxKfRhUV1d7enkVFhVbW9vQUZ8i8M/x21pbP9sdiz84ZGBgELNz5+PHTRkZ6dq2NjC0PkeUMq9mBhAIBBs3blQpFIvF7u7usbGx+F/74cOHr1u3DsOw33//fcB6u7q6DAwMPv30U8Xcxj4+Pm+++eaNGzcGewia98NKpVKJRKIyEaOrq2tubm5dXZ2ZmZnGykOjDwk3NzcPDw/66lOE0uslLBZr1ttvK0ocHBwNDAyKCouWL1+hVWsDQ+tzRB3zBDPA8uXLly9frlzy+PFjAAC+Y0xMTEZGRp875ubmjh079vz588qFGIa1tLRMnjx5sEeheYYVi8X43GTKhfiiSCQingFh60MC9o04utzoI0hNjdjc3Fz5YHV1dU1NTWvEIq36UgtanyPqmCcxAzx9+jQvL2/79u0eHh5sNhsA4OjoqK+v3+fGKu9bwDCstrY2Nja2vr7+xx9/HOxRaJ5h29vb8TnNlQvx2474KoLA1kdQmfb2p6xe07IOY7Ha259qyRFiqOk/AzQ2NkZFReGFFRUVzc3NoaGh+KKbm1tYWJhilxkzZty9e1dPT2/Dhg2xsbH4XIr+/v7+/v4Dejh9+nRwcLBcLp8xY0Z+fv6cOXMGexSaZ1i8d6Onp0e5EF/UYEzD0OsjqAyTyeyQqb4cT97Tg079q0P/GQDDMJlMhhd2d3crL3Z1dSnvsnPnTqlUeuvWrUOHDv31118nTpx40a/X3jg4OCQkJNTX1//yyy/+/v4///wzj8cb3FEMamtlTExMFF0bCpqamgAAo0eP1lh2yPQRVMbYxLi2tkalsKmpaaqVlZYcIYaa/jPAmDFjUlNT8cLExMTY2FjFogqBgYH4h6CgIF9f34MHD27evLmsrAzvheiNr6+voqNg0qRJH3zwAT6VvZub23vvvSeVSg0MDNQ/Cs0zrJWVFZPJvHfvnnIh/mvciozLALY+gsrY2NjkZGe3tbYajRyJlzQ2NjQ0NNja2mrbGmKIIJgBysvLGxoa3NzcFCULFizQ09MrLi4GACQkJKSkpPS5Y01NjZGR0W+//TZp0iTFQy5MJnPBggVFRUWVlZUzZ85U/yg079U2NDR0d3fn8/mK3+QymYzP53O5XFJezQtbH0FlvBcskMvl/HN8RcnpU6cBAL6+flr1hRg6CGaAAwcOeHl5PXjwQFFSUVHR1dU1ZswYAEBSUlL3CzA3N29paXF3d9+7d6+y4J07dzT4A02oVysmJsbDw2PFihXR0dFyuXzXrl0NDQ07duwgojmU+jAQCkvFIjEA4O7dOwCArMzzo0YZAwB8fH0Ne926oaA+RZg715nD4WzbutWQZfi2vX1pScmunTt8/fzsHRy0bW1gaH2OKGVezQzAZrNjY2NVCj/66KMTJ074+vru2bNn8uTJ1dXV27Zt09XVVb4J9iIsLS0DAwO///77sWPHvvPOOxiGnT179tSpUz4+PoMdxUQow7LZ7FOnTkVGRtrZ2eEDKdLS0pycnIhoDqU+DH78/ofjx48pFjdERuIf7lVUkhKgsPWpw9Fjx9etWxsWGtLT08NkMgODgg5+fUjbptSC1ueIUubVzAC2tra9u4/s7e0zMzO3bNni5/f///fY2dllZ2erOR4gJSXF3Nz8wIEDn332GT6Ea/369fjnQcHAMKzwepHLHOfB7qlALpdLJBIGg2FpaYmPhFCB4DxdA+qvXLmS9H6Djzd/Qut5usLXrKZdm/RJW1vbo0ePxo0bN2LEiN5raT3VFa3Nwwiwjo6Oo0eP9i4fMAP0T3t7+99//21qaqrBN4RcLq+rq2MwGGZmZhpUTcK7tfAhyhMnTiSuoy19BJUxMjIyMjLStguENiGYAYYPHz5lyhSNq7awsNC4avR+WAQCgYAIyrAIBAIBC5RhEQgEAhYowyIQCAQsUIZFIBAIWDALrxcBACqr/4RaDWz9jg7Vt4QQxEBfr+Hh3+RqDqU+HdtEAyhoSX1obR5GgOEjO0nX1C5MlznOhdeLaD32s/crHUmByBjeASE4RlgdaNcmGjAEzQgPWpuHEWAdHR20bpA+Qb0ECAQCAQuUYREIBAIWKMMiEAgELFCGRSAQCFigDItAIBCwQBkWgUAgYEH03VpyufxCTs6NG2UYhtnbOyzw8YExG3BxcVF1dfWSJYH4TJMURy6XZ2VlCYVCDMMcHR39/PzIbRPY+tShtraWz+fX1dWZmpouXryYRkN5XoJzVFhYWFVVtXTpUipcdBqbIR5CBNuB0FmXyWR+PguCApdcvHjx8uXLS4MCA/z9Ojs7iWiq8OzZs00bN3A8PcPXrGlubiZRGRIymYzL5QYEBOTk5OTm5i5atMjb25vENoGtTx3S09OnT5++d+/e0tLSuLg4a2vrrKwsbZtSC7qfo2fPnkVERLDZ7LCwMJWJCOllhmAIkdIOhDLsgfgv8vPzz6VnFBQW5V8rSD+fKRAI/vfVV0Q0lZFIJHNnO+Xl5QUGBZGlCZu4uLirV69mZ2cLhcKSkpILFy5cuXIlPj6eLvoUoaWlJSQkxNnZWSwWCwQCsVg8d+7ckJCQJ0+eaNvawND6HNXW1s6aNUsgECxbtkzbXtQ1U1FRcebMGZVCgiFEVjsQyrApR45weTzu/00gzuFwPD09j/yUTERTmerqak8vr8KiYmtrG7I0YZOcnOzt7e3t7Y0v8ng8Dodz+PBhuuhThLNnz7a2tu7btw9/cMjAwGD37t1NTU18Pl+NvbUMrc9RVVUVl8stKyujwrS+apoRCAQbN25UKSQYQmS1g+YZ9sGDB1KpdN48tnKhyzy2WCyur68n4kmBm5vbV/87OKjZybWLVCqVSCSurq7Kha6uriKRqK6ujvr61KG4uJjFYtnb2ytKnJycDAwMCgoKtOprYOh+jjw8PL755huKXHREzPQfQjExMW+9gEePHpHYDprf6aqpEeOTMioXWk6wBACIxSJTU1OCzvApHIiLDCVisbj3w/v4okgkGuwslUOvTx3EYrGFhYVyAOjq6pqZmYlEIq36Ghi6nyNKXXREzPQfQo6Ojvr6+n3uiP/mJasdNM+wT9uf4nOaKxeyhrEUq15B2tvb+2gTFkuxiuL61KG9vb33vHUsFov6h/nqnCPt0tjYGBUVhX+uqKhobm4ODQ3FF93c3MLCwvoPIX9/f39//yHwqXmG1WUyAQA9PT3KhfgivuoVhPniNmGS0Saw9akDk8ns/XI8fFpvLTlSl1fnHGkXDMNkMhn+ubu7W3mxq6uLOiGkeWUmxsYAgMfN/xjE8PhxEwBgtIkJGd7oh4mJCQBAZWBHU1MTAGD06NHU16cOJiYmNTU1KoVNTU3Tpk3TkiN1eXXOkXYZM2ZMamoq/jkxMTE2NlaxiNN/CJWVleH9Ob3x9fUl8cWMmmfYKVOnMpnMivv3lQvLy8v19PSmTJ1Khjf6YWVlxWQy7927p1x49+5dPT09Kysr6utTB1tb28zMzNbW1pEjR+IlDQ0Njx49mjFjhratDcCrc44oTv8hlJCQkJKS0ueONTU15ubmZNnQvDfX0NDQ1dU1Iz0d/02OD7TOSE/39PKC8e5nWmBoaOju7s7n85XbhM/nc7lcUtoEtj518PX1lcvlZ8+eVZScPHkSALBw4UKt+hqYV+ccUZz+QygpKan7BZCYXok+NbstOtqbx3s/LHTLlq1yuXzPntjGxsbo6O1kmRMKS8UiMQDg7t07AICszPOjRhkDAHx8fXv3YVOEmJgYDw+PFStWREdHy+XyXbt2NTQ07Nixgy76FMHFxYXH40VFRRkaGjo4OFy/fn379u0LFy50dHTUtrWBofU5Kikpwe+23759GwCQkZFhbGyM3xoa+otOTTNsNjs2NlZlX4IhRFY7EMqwLi7zjh3/OerjTU6ODvjIrdRTpx3IuwZ+/P6H48ePKRY3REbiH+5VVFI2w7LZ7FOnTkVGRtrZ2eHDdNLS0pycnOiiTx1SU1PDw8OXL1+O351YtmxZQkKCtk2pBa3Pkcrf57Vr1+IfRCLR0F90apqxtbXt87kAIiFEVjswMAwrvF709iwH9fdRQS6XS6VSBoNhYWHBYDB6bwB7nq7wNatJ//8VHR1N5D0jcrlcIpEwGAxLS8s+24TgHE0D6q9cuZJqbaIZbW1tDx8+HD9+/IgRI3qvpfJUV7BjQLvACLCOjo6jR4+SqzlgCMGGhIELOjo69A0USOjo6EycOJG++tTByMjIyMhI2y404dU5RxRHuyFEoec3EAgE4iUDZVgEAoGABcqwCAQCAQuUYREIBAIWKMMiEAgELJiF14sAAA0P/4ZXh4G+HlR9fJwHuYKyzq7K6j/J1VQBtj4d20QDKGhJfWhtnvQAw0ewka6pXZguc5wLrxdBHW41BOP+YDyPCHUML+wxwnRsEw0YgmaEB63Nwwiwjo6Ol2/cJ+olQCAQCFigDItAIBCwQBkWgUAgYIEyLAKBQMACZVgEAoGABcqwCAQCAQui79aSy+VZWVlCoRDDMEdHRz8/PxizARcWFlZVVS1duhSfs5PiyOXyCzk5N26UYRhmb++wwMcHRpsUFxdVV1cvWRJIizbRDIlEkpGeXl9fN368acCiRbQb20TTczQ0ATwoiGSAJ0+enDt3bvLkyc7OzoPaEcOwrKysmzdv9vT0TJ8+ffHixXp6eoOtnVDDyWQyLpcbEBCQk5OTm5u7aNEib2/vzs5OIpoqPHv2LCIigs1mh4WFqcwuR01kMpmfz4KgwCUXL168fPny0qDAAH8/0ttk08YNHE/P8DVrmpubSVSmFJnnz7818839n8eVCcviv9g/y27mhZwcbZtSF/qeoyEI4EFBMANcu3bNzs5u5cqVycnJg9qxpaVl9uzZ/v7+qampZ8+eDQ4OtrGxwWc9GBSEMmxcXNzVq1ezs7OFQmFJScmFCxeuXLkSHx9PRFOZ2traWbNmCQSCZcuWkaUJmwPxX+Tn559LzygoLMq/VpB+PlMgEPzvq6/I0pdIJHNnO+Xl5QUGBZGlSUFaW1pWr141Z86c+5VVF3Jz71dWzZ49e/WqVU+ePNG2tYGh9TmCHcCDQs0MUFFRcebMmd7le/fu9fLyWrFiha6u7mCrXr9+/a1bty5dunTnzp0//vjj0qVLIpFo69atg9UhlGGTk5O9vb29vb3xRR6Px+FwDh8+TERTmaqqKi6XW1ZW1ucUEdQk5cgRLo/H5fHwRQ6H4+npeeSnwX1/9kN1dbWnl1dhUbG1tQ1ZmhSEf47f1tr62e5Y/MEhAwODmJ07Hz9uyshI17a1gaH1OYIdwINCzQwgEAg2btzYu7y8vPzXX3/97LPPNKi6vb09PDycw+Hgi15eXvb29qWlpYPV0bwfViqVSiQSxfQ1OK6urrm5uXV1dWZmZhorK/Dw8PDy8iKuM2Q8ePBAKpWG/+dD5UKXeezLly/X19ebmpoSr8LNzc3Dw4O4DsUpvV7CYrFmvf22osTBwdHAwKCosGj58hVatTYw9D1HQxDAg4JgBjh69OiLepBjYmIyMjL6XJWbmzt27Ni0tDSV8ufPn48aNWqwHjTPsGKxGJ/lTbkQXxSJRKRkWK33rw+Wmhpx74f3LSdYAgDEYhEpAUq7NtGMmhqxubm58sHq6uqamprWiAfdETb00PccDUEADwqCLdnP7o6Ojvr6+n2u6vN9Czk5Obdu3Tp48OBgPWieYdvb2/HZ4ZUL8Tt9+KpXkKftT/tok2EsxSqEmrS3P2X1mtFzGIvVjpoRJjQK4MbGxqioKPxzRUVFc3NzaGgovujm5hYWFtb/7v7+/v7+/mrWJRQKly9fPn/+fJW/7Oqg+VcEk8kEAPT09CgX4ov4qlcQ3Re3ie6r2iaawWQyVZoRACDv6XllQ2tooFEAYxgm+z+6u7uVF7u6ukisiM/nu7u7Ozs7p6WlaXDHTPNWMzExAQCojJ9oamoCAIwePVpjWVpjYmwMAHjc/I82efy4CQAw2sREe77oh7GJcW1tjUphU1PTVCsrLTl6JaBRAI8ZMyY1NRX/nJiYGBsbq1hUh7KyMryfsze+vr6KjoL9+/dv3bo1IiLiyy+/1CC9EsqwVlZWTCbz3r17yoV3797V09OzelUvgylTpzKZzIr795ULy8vL9fT0pkydqj1f9MPGxiYnO7uttdVo5Ei8pLGxoaGhgUajSujIqxPACQkJKSkpfa6qqakxNzcHAMTHx2/duvXQoUMadA4o0LyXwNDQ0N3dnc/nK36Ty2QyPp/P5XJhvPuZFhgaGrq6umakpyu3SUZ6uqeX1yvbJprhvWCBXC7nn+MrSk6fOg0A8PX106qvl5xXJ4CTkpK6XwCeXgUCwebNmw8ePEgkvRJ9ajYmJsbDw2PFihXR0dFyuXzXrl0NDQ07duwgoqlMSUkJ/hDF7du3AQAZGRnGxsZ4L7Vhr9sgFGFbdLQ3j/d+WOiWLVvlcvmePbGNjY3R0dvJ0hcKS8UiMQDg7t07AICszPOjRhkDAHx8fSnbJhowd64zh8PZtnWrIcvwbXv70pKSXTt3+Pr52Ts4aNvawND6HMEO4EGhZgZgs9mxsbEq+z59+vT8+fP4ZwzD/vrrL7wb4Y033pg9e3b/9XZ3d69du9bS0lK5LwJn0aJFBgYG6h8CoQzLZrNPnToVGRlpZ2eHD9VKS0tzcnIioqmMyi95xZeJSCSibKS6uMw7dvznqI83OTk64ANfUk+ddnB0JEv/x+9/OH78mGJxQ2Qk/uFeRSVl20Qzjh47vm7d2rDQkJ6eHiaTGRgUdPDrQ9o2pRa0PkewA3hQqJkBbG1te3cfNTQ0BAcHKxYFAoFAIAAAhISEDJhhGxsb8f5PZQWc+vr68ePHq38IDAzDCq8XucwZ3DsRlJHL5RKJhMFgWFpaMhiM3hvAnqdr5cqVpP+F+XjzJ0TeMyKXy6VSKYPBsLCw6LNNYM/RFL5mNdXaRDPa2toePXo0bty4ESNG9F5L66muqGx+wACGEWAdHR1Hjx4lV1PrkDACQ0dHZ+LEiWSYeXnQ0dF5+eZ00wpGRkZGRkbadvHKgQKYLOj68AkCgUBQH5RhEQgEAhYowyIQCAQsUIZFIBAIWKAMi0AgELBgFl4vAgBUVv8JtRrY+h0dHeQKGujrNTz8m1zNodSnY5toAAUtqQ+tzcMIMHxkJ+ma2oXpMse58HoR1HF5QzDuD8YjfVBHq8AeI0zHNtGAIWhGeNDaPIwA6+jooHWD9AnqJUAgEAhYoAyLQCAQsEAZFoFAIGCBMiwCgUDAAmVYBAKBgAXKsAgEAgELou/WksvlF3JybtwowzDM3t5hgY8PjKmMi4uLqqurlywJxOeypQWFhYVVVVVLly4l3bNcLs/KyhIKhRiGOTo6+vn50Xf66P6pra3l8/l1dXWmpqaLFy+m3VAeeDEwBFDKvMZmamtrMzMzpVKpqampl5eXjY2N+vt2d3fz+fzy8nJdXV1ra+uAgAANJuIkdGXKZDI/nwVBgUsuXrx4+fLlpUGBAf5+nZ2dRDRVePbs2aaNGzienuFr1jQ3N5OoDI9nz55FRESw2eywsDCVmSKJI5PJuFxuQEBATk5Obm7uokWLvL29yW1zipCenj59+vS9e/eWlpbGxcVZW1tnZWVp25S6QI0B2FDKPBEzycnJ06ZN2759+5UrV3bt2jVz5sydO3equa9UKrWxsQkODj537tzJkycDAwNnzJihwQMRhDLsgfgv8vPzz6VnFBQW5V8rSD+fKRAI/vfVV0Q0lZFIJHNnO+Xl5QUGBZGlCZva2tpZs2YJBIJly5bB0I+Li7t69Wp2drZQKCwpKblw4cKVK1fi4+Nh1KVFWlpaQkJCnJ2dxWKxQCAQi8Vz584NCQl58uSJtq0NDOwYgAqlzKtppqKi4syZMyqFlZWV4eHhHA5HIpGUlJRIJBIej7dr167y8nJ1qg4LC2tsbLx58+bvv/9+9+7drKysysrKbdu2DfYQCGXYlCNHuDwel8fDFzkcjqen55GfkoloKlNdXe3p5VVYVGxtPYjf9tqlqqqKy+WWlZVBmhU1OTnZ29vb29sbX+TxeBwO5/DhwzDq0iJnz55tbW3dt28f/uCQgYHB7t27m5qa+Hy+GntrGdgxABVKmVfTjEAg2Lhxo0rh/fv3HRwc9u3bh883M2zYsIiICACAUCgcsN6uri4DA4NPP/10xowZeImPj8+bb75548aNwR6C5v2wDx48kEql4f/5ULnQZR778uXL9fX1pqamGisrcHNz8/DwIK4zlHh4eHh5eUESl0qlEolEZfJLV1fX3Nzcuro6MzMzSPUOPcXFxSwWy97eXlHi5EgVJvMAACAASURBVORkYGBQUFCwcuVKrVobGKgxABtKmSdiZuHChQsXLlQuef78OQBg1KhR+CyuGRkZfe6Ym5s7duxYxSyKOBiGtbS0TJ48ebA2NM+wNTVifKI05ULLCZYAALFYREqGpeMNHKiexWJx75cD4IsikehlyrBisdjCwkK5MXV1dc3MzPCZRykOHeNWAaXMk2imu7s7Pj7ezMyMy+UCABwdHfX19fvcUuV9CxiG1dbWxsbG1tfX//jjj4OtV/MM+7T9KT7BunIhaxhLsQpBOu3t7X20OYulWPXS0N7e3ntaVhaL9ZIdJkJjGhsbo6Ki8M8VFRXNzc2hoaH4opubW1hYmPLG3d3da9asEQqFOTk5eAL19/f39/cfsJbTp08HBwfL5fIZM2bk5+fPmTNnsD41/4rQZTIBAD09PcqF+KLu4Mc0INSB+eI212AcCZVhMpkqh4kf6Ut2mAiNwTBM9n90d3crL3Z1dSlv2dbW5ufnd+bMmXPnznl6eg6qFgcHh4SEBHwEgr+/f25u7mB9ah6vJsbGAIDHzf8YP/H4cRMAYLSJicayiH4wMTEBAKiMWWlqagIAjB49Wnu+yMfExKSmpkalsKmpadq0aVpyhKAWY8aMSU1NxT8nJibGxsYqFpWpra1dsGBBW1vbtWvXZs2apSgvKyvD+9x64+vrq+gomDRp0gcffAAAiI6OdnNze++996RSqYGBgfo+Nc+wU6ZOZTKZFffvKxeWl5fr6elNmTpVY1lEP1hZWTGZzHv37ikX3r17V09Pz8rKSnu+yMfW1jYzM7O1tXXkyJF4SUNDw6NHjxT3dhGIAfn777+9vLwMDQ1LS0tV7gwlJCSkpKT0uVdNTY2RkdFvv/02adIkxX0mJpO5YMGCoqKiysrKmTNnqu9B814CQ0NDV1fXjPR0xW9ymUyWkZ7u6eUF493PCLzN3d3d+Xy+cpvz+Xwul/uStbmvr69cLj979qyi5OTJk/gNYq36QtCJd999l8FgXLlypfeN96SkpO4XYG5u3tLS4u7uvnfvXuVd7ty5o8GfRUK9Wtuio715vPfDQrds2SqXy/fsiW1sbIyO3k5EUxmhsFQsEgMA7t69AwDIyjw/apQxAMDH17f3bRCKUFJSgt/vvn37NgAgIyPD2NgY78QhxXNMTIyHh8eKFSuio6PlcvmuXbsaGhp27NhBhncK4eLiwuPxoqKiDA0NHRwcrl+/vn379oULFzo6Omrb2sDAjgGoUMq8mmbYbHZsbKzKvidOnMjLy9u4ceOlS5eUy6dMmeLg4NB/vZaWloGBgd9///3YsWPfeecdDMPOnj176tQpHx+fwY7YIZRhXVzmHTv+c9THm5wcHXBbqadOO5B3Dfz4/Q/Hjx9TLG6IjMQ/3KuopGykqvz7UIxdFYlEpHhms9mnTp2KjIy0s7PDh2qlpaU5OTkRV6Yaqamp4eHhy5cvx29wLVu2LCEhQdum1AJ2DECFUubVNGNra9v7kYT8/HwAwFe9HjENDw8fMMMCAFJSUszNzQ8cOPDZZ5/hQ7jWr1+Pfx4UDAzDCq8XvT1r4CpfhFwul0qlDAbDwsKCwWD03gD2PF3ha1aT/h85OjqayvN0yeVyiUTCYDAsLS37bPOVK1fSrk36pK2t7eHDh+PHjx8xYkTvtbSe6orW5mEEWEdHx9GjR8nVJIhcLq+rq2MwGGZmZn1eaANCwtgXHR0d+gYKTdHR0Zk4caK2XQwFRkZGRkZG2naBeEXR0dGxsLAgpECeGQQCgUD8A5RhEQgEAhYowyIQCAQsUIZFIBAIWKAMi0AgELBgFl4vAgA0PPwbXh0G+npQ9fFxHuQKyjq7Kqv/JFdTBdj6dGwTDaCgJfWhtXnSAwwfwUa6pnZhusxxLrxeROWxn+oA45lRqGN4YY8RpmObaMAQNCM8aG0eRoB1dHS8fOM+US8BAoFAwAJlWAQCgYAFyrAIBAIBC5RhEQgEAhYowyIQCAQsUIZFIBAIWBB9t5ZcLs/KyhIKhRiGOTo6+vn5wZgNuLCwsKqqaunSpfi8qrSguLiourp6yZJASJ5h61OEJ0+enD+fMWnSpDlz5mrbyyCQy+UXcnJu3CjDMMze3mGBjw+lZsnuHwqa1zgDVFRUXLx4sb6+3tzcfP78+VM1muCqq6vr5MmT48eP5/F4g92XUMPJZDIulxsQEJCTk5Obm7to0SJvb+/Ozk4imio8e/YsIiKCzWaHhYWpzABIWZ49e7Zp4waOp2f4mjXNzc2006cOhYUFsx0dVr///tEjfU+pRE1kMpmfz4KgwCUXL168fPny0qDAAH8/cq8LeFDNPJEMsGfPHltb27179/76668xMTE2NjZ79uzRwMPOnTtDQkL279+vwb6EMmxcXNzVq1ezs7OFQmFJScmFCxeuXLkSHx9PRFOZ2traWbNmCQSCZcuWkaUJG4lEMne2U15eXmBQEB31qcP+zz/38fYOfu89XV1dbXsZHAfiv8jPzz+XnlFQWJR/rSD9fKZAIPhfr5ftUxNKmVczA1RUVJw5c0alsLCwcPv27R988IFUKi0pKamtrXV1df3vf/9bUVExKA+lpaVffPHFuHHjNDoCYhk2OTnZ29vb29sbX+TxeBwO5/Dhw0Q0lamqquJyuWVlZb2niKAs1dXVnl5ehUXF1tY2dNSnDvfv38u5ePG/MfSbgizlyBEuj8f9v3+UHA7H09PzyE/J2valFpQyr2YGEAgEGzduVCkUi8Xu7u6xsbFMJhMAMHz48HXr1mEY9vvvv6tvQCaThYSErFy5cvr06Zodgub9sFKpVCKRKGbOwXF1dc3Nza2rqxvsfGF94uHh4eXlRVxnKHFzc/Pw8KCvPnU4nJSs9e4/DXjw4IFUKg3/z4fKhS7z2JcvX66vr+896SmloJp5Ihlg+fLly5cvVy7BOxnw1BQTE5ORkdHnjrm5uWPHjsU/b9u27enTpwcOHAgICNDMhuYZViwW4zPxKRfiiyKRiJQMS8cLDLZnOraJZtD0SGtqxL1f4GA5wRIAIBaLKJ5hqWaerBh4+vRpXl7e9u3bPTw82Gw2AMDR0VFfX7/PjRXvW8jPzz906FBOTs7IkSM1rlrzDNve3g4AUJl+Er/Th69CIF5BnrY/7eO6GMZSrKIyNDLf2NgYFRWFf66oqGhubg4NDcUX3dzcwsLCFFvOmDHj7t27enp6GzZsiI2NxSc09Pf39/f370e/vb09NDT0gw8+4HK5RHxqnmHx3o2enh7lQnwRX4VAvILovvi60KX8dUEj8xiGyWQy/HN3d7fyYldXl/KWO3fulEqlt27dOnTo0F9//XXixIkX/XpV5uOPP9bR0fniiy8I+tS81UxMTBRdGwqampoAAKNHjyZoC4GgKSbGxgCAx83/uC4eP24CAIw2MdGeL7WgkfkxY8akpqbinxMTE2NjYxWLKgQGBuIfgoKCfH19Dx48uHnz5rKyMryfsze+vr7Xrl1LSkrKzs7GMAz/R97T08NgMNrb21977TU9PT31fWqeYa2srJhM5r1795QL8V/jVlZWGssiELRmytSpTCaz4v595cLy8nI9Pb0pGg13H0pobV6F8vLyhoYGNzc3RcmCBQv09PSKi4sBAAkJCSkpfQ+yrqmpSUtL6+npmT9/vsqqESNG7Nu3b+vWrerb0Lwj2dDQ0N3dnc/nK36Ty2QyPp/P5XJhvPsZgaAFhoaGrq6uGenpytdFRnq6p5cX9a8LWptX4cCBA15eXg8ePFCUVFRUdHV1jRkzBgCQlJTU/QLMzc0//fRT4T95++23nZychEKhordXTQj1rcTExHh4eKxYsSI6Oloul+/atauhoWHHDtIGMJaUlIhEIgDA7du3AQAZGRnGxsZ4L7VKZzx1EApLxSIxAODu3TsAgKzM86NGGQMAfHx9SfEMW58iPH36NDsrC/+MYZhI9NeZ06cBAP9641+Ojk7adjcA26KjvXm898NCt2zZKpfL9+yJbWxsjI7erm1fakEp82pmADabHRsbq7LvRx99dOLECV9f3z179kyePLm6unrbtm26urrKN8FexIQJE1RGSY0YMYLJZDo4OAz2EAhlWDabferUqcjISDs7O9xWWlqakxNpF4DKL3nF2FuRSETZbPLj9z8cP35MsbghMhL/cK+ikhTPsPUpQmNjY8jKfysW8/Ly8vLyAAArVvyb+hnWxWXeseM/R328ycnRAR/8lHrqtIOjo7Z9qQWlzKuZAWxtbXs/kmBvb5+ZmbllyxY/Pz+8xM7OLjs7e86cOUPi/f/DwDCs8HqRyxxnjSXkcrlEImEwGJaWlvhICBVgz9O1cuVK0v/CfLz5E1rP0xW+ZjXt2kQDqDzVlVwul0qlDAbDwsKiz+uC1uZhBFhHR8fRo0fJ1cTHXf3999+mpqZa+QlCwggMHR2diRMnkmEGgXh50NHRoe+8frQ2r8Lw4cOnTJmirdpp+dgMAoFA0AKUYREIBAIWKMMiEAgELFCGRSAQCFigDItAIBCwYBZeLwIAVFb/CbUa2PodHR3kChro6zU8/JtczaHUp2ObaAAFLakPrc3DCDB8ZCfpmtqF6TLHufB6Ea3Hfiq/0pFEoI5WgT1GmI5togFD0IzwoLV5GAHW0dFB6wbpE9RLgEAgELBAGRaBQCBggTIsAoFAwAJlWAQCgYAFyrAIBAIBC5RhEQgEAhbkzG5WXFxUXV29ZEkgPtcsicjl8gs5OTdulGEYZm/vsMDHh/qTPMvl8qysLKFQiGGYo6Ojn58fuZ5h61OH2tpaPp9fV1dnamq6ePFi2g3lKSwsrKqqWrp0KenXBVQoFWAYhmVlZd28ebOnp2f69OmLFy8e1DRZREKIYNU4RDPss2fPtkd/+n1iIoZhnp5e5EaSTCZbvCggLy9v1ttv6+jofB4X5+npeZZ/Tp2pIrWFTCbz9fUVCAT29vY6Ojp79uzhcDiZmZlkeYatTx3S09ODg4NHjBhhY2Nz79696Ojo06dP+/r6atuXWjx79mzLli3ffvsthmEcDodGGZZSAdbS0sLj8YRCoa2trY6Ozp07dyZPnpybm/vGG2+oszuRECJYtQJCX00SiWTubKe8vLzAoCAiOi/iQPwX+fn559IzCgqL8q8VpJ/PFAgE//vqKxh1kUVcXNzVq1ezs7OFQmFJScmFCxeuXLkSHx9PF32K0NLSEhIS4uzsLBaLBQKBWCyeO3duSEjIkydPtG1tYGpra2fNmiUQCJYtW6ZtL4OGUgG2fv36W7duXbp06c6dO3/88celS5dEIlHviQgrKirOnDmjUkgwhNSsekAIZdjq6mpPL6/ComJraxsiOi8i5cgRLo/H5fHwRQ6H4+npeeSnZBh1kUVycrK3t7e3tze+yOPxOBzO4cOH6aJPEc6ePdva2rpv3z78wSEDA4Pdu3c3NTXx+XxtWxuYqqoqLpdbVlbWe2oT6kOpAGtvbw8PD+dwOPiil5eXvb19aWmpymYCgWDjxo0qhQRDSM2qB4RQhnVzc/vqfwcNDAyIiLyIBw8eSKXSefPYyoUu89hisbi+vh5GjcSRSqUSicTV1VW50NXVVSQS1dXVUV+fOhQXF7NYLHt7e0WJk5OTgYFBQUGBVn2phYeHxzfffAPpuoAK1QIsLS3t66+/Vi55/vz5qFGj1Nm3/xCKiYl56wU8evSIYNXKEOqHhdr/XVMjxidiUy60nGAJABCLRaampvCq1hixWNz74X18USQSmZmZUVyfOojFYgsLC+UA09XVNTMzw2cepTj0vfFI8QDLycm5devWwYMH1dm4/xBydHR8Uc9yn+9bGFTVypAzlgAGT9uf4hO4KxeyhrEUqyhIe3t7H55ZLMUqiutTh/b29t7z1rFYrJfsMKkGlQNMKBQuX758/vz5+IyzjY2NUVFR+KqKiorm/9feucc1cWUP/CYkFcTHCkqRh1YQrIL6UQhaLc+ECETUVtRFWR5tld11fVChgrGobVDXYlvrpx90VVrQKuBCBEEUHykoKAZfFdAAJYFEsSU8Kq8oIfP7Y3bzSwNCHjNmpnu/f829M/fcM/eenMzcOTOnoyM6Ohot+vr6xsTEDG9CoaGhoaGhhnWtF8T9szWj0QAAAwMDmpVoEd1FQGiv1pmGhc54yycONBpN6zTRM/2DnSbRIKyB8fl8Pz+/RYsW5eXlmZmZoaFUiv+iVCo1i/39/Ria0OCu9YK49mptZQUAaO9o16xsb28DAEy0tjadXsNhbW0NAGhv/53ObW1tAICJEycSXz5xsLa2bmpq0qpsa2ubMWOGiTT6n4CYBnbgwIHExMRNmzZ9+eWXah83adKkrKwsdPvIkSM8Hk9dRBnehKqqqtAlkcFwOBz1QsGQXesFcT3sdBcXGo0mevxYs7K2tpZOp093cTGdXsPh6upKo9EePXqkWVlTU0On011dXYkvnzi4ubkVFhb+9ttv48ePR2taW1t//fVXd3d3U6v2R4aABpaampqYmHj48GF979CHN6G0tLSMjIwhGzY1Ndnb2xvTtSbEXSWwtLT08fEpyM9Hr/nRWOiC/PwAJhOPb0tjgqWlpZ+fH5/P19SZz+cHBgZiojPe8okDh8NRqVS5ubnqmjNnzgAAli1bZlK9/uAQzcAEAkFCQsKhQ4cM8HHDm9CJEyeUrwB1r8Z0rYlR17BC4W2JWAIAqKmpBgAUFZ6fMMEKABDC4QxeYzaAJC43iM3+ICZ6+/ZElUqVksKTy+Vc7k7jJeNHcnKyv79/REQEl8tVqVR79uxpbW3dtWsXWeQThMWLF7PZ7Pj4eEtLS09Pz1u3bu3cuXPZsmUMBsPUqo1MZWUl+sD64cOHAICCggIrKyv06QomvwtcIY6BKZXKjRs3Ojo6ai4IoKxYsUIzGM7b25vH42k1N8aEdO96RIzysMeO/uvUqZPq4tYtW9CNR6I6TCxp8eJ3T576IX7bx14MTzRyKys7x5PYvzFvb+/s7OwtW7bMnTsXjXTJy8vz8vIii3zikJWVFRsbu27dOvTpxJo1a9LS0kytlE5o3YGqL4LEYjHxPSxxDEwul6PrFeHh4Vq7WlpabG1t1UU3N7chX+4w2IR073pEKAiClN+qmD/PU/c2+mJkni6VSiWTySgUioODA4VCGXxA7PqPML+F4XK5xnxnRKVSSaVSCoXi6Og4pM5G5mgaUX5kZCTRxsQwnj9//ssvv9ja2o4dO3bwXlKnuiKy8iYxsL6+vszMTGxljmhCeEPcJ11qqFQqYQ3xVVCp1KlTp5JXPnEYN27cuHHjTK3F/xx/JAMzrQkR90kXBAKBkB3oYSEQCAQvoIeFQCAQvIAeFgKBQPACelgIBALBC1r5rQoAQOsvz/Drw/wNOq7y0TgPbAUqXvbXNfyMrUwt8JZPxjExAAKqpDukVh5zA0Mj2DCXaVpoixcuKr9VgWs41GuI+8PjlT5jYnhHxMgYYV0g3ZgYwGsYRvwgtfJ4GFhfXx/p4jJHBK4SQCAQCF5ADwuBQCB4AT0sBAKB4AX0sBAIBIIX0MNCIBAIXkAPC4FAIHiBzbe1ysvL6+vrV69ejaalxBCVSlVUVCQUChEEYTAYS5cuJX6qZJVKdbG4+M6dKgRBPDw8g0NC8ND55s2KhoaGlSvDMB9z4iCVSgvy81tantraTl6+YgXpYptIPUcEUR5BkKKiovv37w8MDLz99tvvv/8+nU7XS0JXV9e5c+ecnZ0XLVqkV0OlUsnn82tra83MzGbOnLl8+XID0kEa62F7e3u3b9/+7bffIgjCYrGwnQyFQsHhcAQCgYeHB5VKTUlJYbFYhYWFr0p0TgQUCsX7K5aXlpbOmz+fSqX+c//+gICAXP45DHXu7e3dyd1x9MgRBEECAphk/PXqQuH581GRfxkzZszMmbMeP360e1fyqR9OBwUHm1ovnSD1HBFH+c7OTjabLRQK3dzcqFRqdXW1s7NzSUnJtGnTdJRw/fr1qKgosVj84Ycf6uVhZTJZQEBAY2Pj7NmzX758WVtbO2PGjJKSEn0jdo26tmpubp43b55AIFizZo0xcl7F/v37f/zxxwsXLgiFwsrKyosXL169ejU1NRWPvrDiYOoXZWVl5/ILbpRXlF2/kX++UCAQfP3VV1jJl0ql7yzwKi0tDVu1CiuZBOS3zs6PPvpw4cKFj+vqL5aUPK6rX7BgwUcfftjV1WVq1UaG1HNEKOU3b9784MGDy5cvV1dX//TTT5cvXxaLxYmJiVqHiUSis2fPDm6+d+9eJpMZERFhQJrYmJgYuVx+//79e/fu1dTUFBUV1dXVJSUl6SvHKA9bX18fGBhYVVU1ZAoH40lPTw8KCgoKCkKLbDabxWIdP34cj76wIuP77wPZ7EA2Gy2yWKyAgIDvv0vHSn5DQ0MAk1lecXPmzFlYySQg/HP857/99tnnPPTFIXNz8+Tdu9vb2woK8k2t2siQeo4IpXx3d3dsbCyLxUKLTCbTw8Pj9u3bWocJBIK4uLjBzWtra69du/bZZ5/p229/f7+5ufmOHTvUuY1DQkJmz559584dfUUZtUrg7+/PZDKNkTAMMplMKpVqJXr08fEpKSl5+vSpnZ0dTv0aw5MnT2QyWexf/6ZZufhd7ytXrrS0tEyePNn4Lnx9ff39/Y2XQ3Bu36ocPXr0vPnz1TWengxzc/OK8op16yJMqtrIkHqOCKV8Xl6eVs2LFy8mTJigY/PMzMxXPQJJTk4uKCgYcldJSYmNjc358+c1KxEE6ezsdHZ21rFrNUZ5WFwfOkkkEjQRm2YlWhSLxcT0sE1NksEv7ztOcQQASCRiTDws8R/0YUJTk8Te3l7zZM3MzCZPntwkEZtUL50g9RwRWfni4uIHDx4cOnRIx+OHORcGg/GqRyNa31tAEKS5uZnH47W0tBw7dkxPlQmcp6u7uxtN4K5ZiS66o7sISE93zxA6W4xW74LoSHd3z+hBaVktRo/uhsP4v4pQKFy3bt2SJUvQ+1q5XB4fH4/uEolEHR0d0dHRaNHX1zcmJmZ4aaGhoaGhoSN2mpOTEx4erlKp3N3dy8rKFi5cqK/axP2/QgMjBgYGNCvRogExE68Hs1frbEZUnYkJjUbTGkYAgGpggLBTD8EVPp/v5+e3aNGivLw89LEVgiCK/6JUKjWL/f39WPXr6emZlpa2e/du1CmXlJToK4G49mptbQ0AaG9v16xsa2sDAEycONF0eg2HtZUVAKC943c6t7e3AQAmWlubTi/yYWVt1dzcpFXZ1tbm4upqIo0gJuPAgQOJiYmbNm368ssv1VEBkyZNysrKQrePHDnC4/HURV2oqqpC1yEHw+Fw1AsFTk5OGzZsQFPZ+/r6rl27ViaTmZub694RcT2sq6srjUZ79OiRZmVNTQ2dTncl6s9suosLjUYTPX6sWVlbW0un06e7uJhOL/Ixa9as4gsXnv/227jx49Eauby1tbUVp6gVCGFJTU1NTEw8fPiw1kNvI0lLS8vIyBhyV1NT07hx4+7evevk5KR+pkKj0YKDgysqKurq6ubMmaN7R8RdJbC0tPTz8+Pz+eprfoVCwefzAwMD8fi2NCZYWlr6+PgU5Odr6lyQnx/AZBJWZ2ISFBysUqn45/jqmpzsHAAAh7PUpHpBXisCgSAhIeHQoUPYulcAwIkTJ5SvwN7evrOz08/Pb+/evZpNqqurDbiBNuoatrKyUiwWAwAePnwIACgoKLCyskIXLCwHPaYwgOTkZH9//4iICC6Xq1Kp9uzZ09raumvXLuMl40cSlxvEZn8QE719e6JKpUpJ4cnlci53J1byhcLbErEEAFBTUw0AKCo8P2GCFQAghMPBZMwJwjvvLGKxWEmJiZajLed7eNyurNyzexdn6VIPT09TqzYypJ4j4iivVCo3btzo6OiouSCAsmLFCs1bdW9vbx6Pp9W8p6dHHXGFIEhjYyMqZNq0aQsWLBi+a0dHx7CwsKNHj9rY2Lz33nsIguTm5mZnZ4eEhOgbxWSUh9W60lb/z4jFYkwmw9vbOzs7e8uWLXPnzkVDtfLy8ry8vIyXjB+LF7978tQP8ds+9mJ4olOVlZ3jyWBgJf/Y0X+dOnVSXdy6ZQu68UhUR/xfr15knjz1j39sjImOGhgYoNFoYatWHfrmsKmV0glSzxFxlJfL5egiYXh4uNaulpYWW1tbddHNzW3w8lFra6tmQ4FAIBAIAABRUVEjelgAQEZGhr29/cGDB9EXFiwsLDZv3mzAywsUBEHKb1UsXqjfNxH0wsg8XSqVSiqVUigUR0dHCoUy+IDIyEjM78G3JXxizHdGVCqVTCajUCgODg5D6ox3jqbY9R8RbUwM4/nz57/++uubb745duzYwXtJneqK1MrjYWB9fX2ZmZnYyjQSlUr19OlTCoViZ2c35A95RIj7pEsNlUqdOnWqqbXQDyqV+sfL6WYSxo0bN27cOFNrAfkfhUqlOjg4GCUBO2UgEAgE8jugh4VAIBC8gB4WAoFA8AJ6WAgEAsEL6GEhEAgEL2jltyoAAHUNP+PaDd7y+/r6sBVo/ga99Zdn2Mp8nfLJOCYGQECVdIfUyuNhYGhkJ+YyTQtt8cJF5bcqcI3Lew1xf3i8k4pruJWRMcK6QLoxMYDXMIz4QWrl8TCwvr4+Ug/IkMBVAggEAsEL6GEhEAgEL6CHhUAgELyAHhYCgUDwAnpYCAQCwQvoYSEQCAQvsPm21s2bFQ0NDStXhqG5YDFEpVJdLC6+c6cKQRAPD8/gkBAiZxvWpLy8vL6+fvXq1XiMSVFRkVAoRBCEwWAsXbqULGNiAF1dXefOnXN2dl60CMcPbGIOqeeIUMojCFJUVHT//v2BgYG33377/fffp9Ppujdvbm4uLCyUyWSTJ09mMpmzZs0yQIf+/v4zZ87Y2tqy2Wx92xo7cL29vR/HbWUFBMSuX9/R0WGkNC0UCsXSkOBVYSsvXbp05cqV1avClocuffnyJba9kFZW+AAAIABJREFUYE5vb++mTZu8vb1jYmK0Mjkaj0KhCAwMXL58eXFxcUlJyYoVK4KCgog/JoZx/fr1uXPnRkZGpqenm1oXPSD1HBFK+c7OzgULFoSGhmZlZeXm5oaHh8+aNQvNq6IL6enpM2bM2Llz59WrV/fs2TNnzhw0a6y+7N69Oyoq6sCBAwa0NcrDSqXSdxZ4lZaWhq1aZYycV3Ew9YuysrJz+QU3yivKrt/IP18oEAi+/uorPPrCiubm5nnz5gkEgjVr1uAhf//+/T/++OOFCxeEQmFlZeXFixevXr2ampqKR1+mZe/evUwmMyIiQp1elCyQeo4IpfzmzZsfPHhw+fLl6urqn3766fLly2KxODExUeswkUh09uxZrcq6urrY2FgWiyWVSisrK6VSKZvN3rNnT21trV463L59+4svvnjzzTcNOwWjPGxDQ0MAk1lecXPmTEOuvUck4/vvA9nswP9embNYrICAgO+/I/TlTH19fWBgYFVVFU5ZUdPT04OCgoKCgtAim81msVjHjx/Hoy/TUltbe+3aNQPydpgcUs8RoZTv7u5GvSRaZDKZHh4et2/f1jpMIBDExcVpVT5+/NjT03Pfvn1o8hsLC4tNmzYBAIRCoe4KKBSKqKioyMjIt99+27BTMGod1tfX19/f3xgJw/DkyROZTBb7179pVi5+1/vKlSstLS2TJ0/GqV8j8ff3ZzKZOAmXyWRSqVQr76aPj09JScnTp0/1zdFGcDIzM0m0dqmG1HNENOXz8vK0al68eDFhwgRd2i5btmzZsmVabQEAaPPk5OSCgoIhG5aUlNjY2KDbSUlJPT09Bw8eXL58uWGnYJSHxfUH0NQkQTMJalY6TnEEAEgkYsJ6WFzHRCKRDP44AFoUi8UE//XqCxndK9nniODKFxcXP3jw4NChQwa0VSqVqampdnZ2gYGBAAAGg/HGG28MeaT6ewtlZWWHDx8uLi4eP368wToTN09XT3cPAEArveVoi9HqXf+DdHd3DzEmo0erd0FMDqnniMjKC4XCdevWLVmyBL3Elsvl8fHx6C6RSNTR0REdHY0WfX19Y2JiNNsqlcr169cLhcLi4mLUgYaGhoaGhg7TXXd3d3R09IYNG1CPbDDE9bBmNBoAYGBgQLMSLaK7/gehvXpMaP+rY0I0SD1HhFWez+dHRET4+/vn5OSgTz4RBFEoFOhepVKpWezv79ds+/z589WrV9+4cePcuXMBAQE69rht2zYqlfrFF18YqTlxp9zaygoA0N7xu2in9vY2AMBEa2vT6WVKrK2tAQBaEWBtbW0AgIkTJ5pOL8j/Q+o5IqbyBw4cSExM3LRp05dffqkOLJk0aVJWVha6feTIER6Ppy5q0tzcHBwc/Pz58+vXr8+bN09dX1VVhS6JDIbD4Vy/fv3EiRMXLlxAEAS9eB8YGKBQKN3d3aNGjdIrIJe4Hna6iwuNRhM9fqxZWVtbS6fTp7u4mE4vU+Lq6kqj0R49eqRZWVNTQ6fTXV1dTacX5P8h9RwRUPnU1NTExMTDhw9rPX/ThWfPnjGZTEtLy9u3b2s9uUlLS8vIyBiyVVNTU15e3sDAwJIlS7R2jR07dt++fYPDxYaBuA8TLC0tfXx8CvLz1df8CoWiID8/gMnE49vSpMDS0tLPz4/P52uOCZ/PDwwM/J8dE6JB6jkimvICgSAhIeHQoUMGuFcAwJ///GcKhXL16tXBD8ZPnDihfAX29vY7duwQ/p758+d7eXkJhUL1aq+OGHUNKxTeloglAICammoAQFHh+QkTrAAAIRyO1mK5YSRxuUFs9gcx0du3J6pUqpQUnlwu53J3Gi8ZPyorK9F3Th4+fAgAKCgosLKyQlfWMRmT5ORkf3//iIgILperUqn27NnT2tq6a9cuLHQnED09PefPn0e3EQRpbGxE7wGnTZu2YMECU2s3AqSeI+Ior1QqN27c6OjoqLkggLJixQpzc3N10dvbm8fjaTU/ffp0aWlpXFzc5cuXNeunT5/u6ek5fNdTpkzRCqgYO3YsjUYbseFgjPKwx47+69Spk+ri1i1b0I1HojpMvMnixe+ePPVD/LaPvRieaORWVnaOJ4NhvGT80Lr7UP/3isViTMbE29s7Ozt7y5Ytc+fORU0hLy/Py8vLeMmEorW1NTw8XF0UCAQCgQAAEBUVRXwPS+o5Io7ycrkcXa/QtASUlpYWW1tbddHNzW3wCz5lZWUAgK8GvQIaGxtrgKM0GAqCIOW3KubPw7FLI/N0qVQqmUxGoVAcHBwoFMrgA2LXf4T5LQyXyyVyni6VSiWVSikUiqOj45BjEhkZSboxMQAip7oacY5IrTweBtbX15eZmYmtTJND3CddaqhUKmEN0VRQqdSpU6eaWgvIcJB6jkitPKEg7pMuCAQCITvQw0IgEAheQA8LgUAgeAE9LAQCgeAF9LAQCASCF7TyWxUAgNZfnuHXh/kbdFzlo3Ee2ApUvOyva/gZW5la4C2fjGNiAARUSXdIrTzmBoZGsGEu07TQFi9cVH6rgsixn7qAxyt9xsTwjoiRMcK6QLoxMYDXMIz4QWrl8TCwvr6+P15cJlwlgEAgELyAHhYCgUDwAnpYCAQCwQvoYSEQCAQvoIeFQCAQvIAeFgKBQPACm29rlZeX19fXr169Gk1LiSEqlaqoqEgoFCIIwmAwli5dSpYkzzdvVjQ0NKxcGYb5mLwe+QShq6vr/PkCJyenhQvfMbUueqBSqS4WF9+5U4UgiIeHZ3BICFnsVg1BDAxBkKKiovv37w8MDLz99tvvv/++XmmyRCLRpUuXWlpa7O3tlyxZ4qJzAqp79+49ePBAq3L27NkeHh76qG+0h+3t7d2+ffu3336LIAiLxcJ2MhQKBYfDEQgEHh4eVCo1JSWFxWIVFha+KtE5Qejt7d3J3XH0yBEEQQICmJgbKN7yiUN5+Y31H34okUiio2NI5GEVCsX7K5aXlpbOmz+fSqX+c//+gICAXP45gtutGuIYWGdnJ5vNFgqFbm5uVCq1urra2dm5pKRk2rRpujRPSUnZtWvXxIkTp06dWl9fHxcXt3v3bi6Xq0vbzMzMr7/+etSoUZqVCQkJ+npYo/5Xm5ub582bJxAI1qxZY4ycV7F///4ff/zxwoULQqGwsrLy4sWLV69eTU1NxaMvrJBKpe8s8CotLQ1btYqM8onDgX/+MyQoKHztWnV6UbJwMPWLsrKyc/kFN8oryq7fyD9fKBAIvh70sX1iQigD27x584MHDy5fvlxdXf3TTz9dvnxZLBYPTkQoEonOnj2rVVleXr5z584NGzbIZLLKysrm5mYfH59PP/1UJBLp0nVnZ6etra3i93z++ef6noJRHra+vj4wMLCqqmpwCgdMSE9PDwoKCgoKQotsNpvFYh0/fhyPvrCioaEhgMksr7g5c+YsMsonDo8fPyq+dOnTZHKkt9Ik4/vvA9nsQDYbLbJYrICAgO+/Sze1XjpBKAPr7u6OjY1lsVhokclkenh43L59W+swgUAQFxenVSmRSPz8/Hg8Ho1GAwCMGTPmH//4B4Ig9+7d06Xrzs7O8ePHG38KRq0S+Pv7M5lM45UYEplMJpVKtXJM+vj4lJSUPH361M7ODqd+jcTX19ff35+88onD8RPppFu7BAA8efJEJpPF/vVvmpWL3/W+cuVKS0vL4KSnRINQBpaXl6dV8+LFiwkTJujSdt26devWrdOsaW9vBwCgriM5ObmgoGDIhiUlJTY2Np2dnX/605+M0P0/GOVhcf0BSCQSNBGbZiVaFIvFhPWweDsFMjodwyDpmTY1SQZ/wMFxiiMAQCIRE9/DEnnYi4uLHzx4cOjQIX0b9vT0lJaW7ty509/f39vbGwDAYDBetSyOfm+hs7PT3Nw8OTn50qVLbW1tLi4umzZtCgkJ0bdr4ubp6u7uRhO4a1aii+7oLgiEgPR09wxhtxaj1bsghiEUCtetW7dkyRL0vlYul8fHx6O7RCJRR0dHdHQ0WvT19Y2JiVE3dHd3r6mpodPpW7du5fF4aGLH0NDQ0NDQYbrr6OhoamoaP378ypUrX7x4cerUKQ6Hc/To0Q0bNuilNnE9LLp6MjAwoFmJFtFdEAgBMXu13ZpBuzUUPp8fERHh7++fk5ODPvlEEEShUKB7lUqlZrG/v1+z7e7du2Uy2YMHDw4fPtzY2Hj69Gldgjq+++67UaNGLVq0CC1u27Zt/vz5CQkJkZGR5ubmumtO3Cm3trZWL52oaWtrAwBMnDjRdHpBIMNhbWUFAGjv+J3dtre3AQAmWlubTi8Sc+DAgcTExE2bNn355ZfqwJJJkyZlZWWh20eOHOHxeOqiFmFhYejGqlWrOBzOoUOHEhISqqqq0HXIwXA4HAsLC63F6NGjR0dGRnK53IcPHzIYDN2VJ66HdXV1pdFojx490qxEr/ZdXV1NpxcEMhzTXVxoNJro8WPNytraWjqdPl3ncHeImtTU1MTExMOHD2s99B6R2tra1tZWX19fdU1wcDCdTr958yYAIC0tLSMjY8iGTU1N9vb2g+vRFWp0kUF3iLuqbWlp6efnx+fz1df8CoWCz+cHBgbi8W1pCAQTLC0tfXx8CvLzNe22ID8/gMmEdqsvAoEgISHh0KFD+rpXAMDBgweZTOaTJ0/UNSKRqL+/f9KkSQCAEydOKF+Bvb29TCZzdXX97LPPNAVevHjRwsJi1iz9gtiMuoatrKwUi8UAgIcPHwIACgoKrKys0FVkrZV+w0hOTvb394+IiOByuSqVas+ePa2trbt2ETpAUii8LRFLAAA1NdUAgKLC8xMmWAEAQjgcTMYEb/kEoaen50JREbqNIIhY3Hg2JwcA8Na0txgML1NrNwJJXG4Qm/1BTPT27YkqlSolhSeXy7ncnabWSyeIY2BKpXLjxo2Ojo6aCwIoK1as0FwM9fb25vF4Ws3//ve/nz59msPhpKSkODs7NzQ0JCUlmZmZaT4EexUODg5Tpkzh8XhjxowJCQnp6upKS0srLS3dtWuXvm+4GeVhta601f8zYrEYk8nw9vbOzs7esmXL3Llz0VCtvLw8Ly9C/8COHf3XqVMn1cWtW7agG49EdZiMCd7yCYJcLo+K/Iu6WFpaWlpaCgCIiPgL8T3s4sXvnjz1Q/y2j70YnmjkVlZ2jqc+i3cmhDgGJpfL0UXC8PBwrV0tLS22trbqopub2+CXnjw8PAoLC7dv37506VK0Zu7cuRcuXFi4cKEuvefm5m7dujUpKWnbtm3os5/9+/d/8skn+p4FBUGQ8lsVixcu0rel7hiZp0ulUkmlUgqF4ujoOOQiSGRkJOb3X9sSPiF1nq7Y9R+RbkwMgMiprlQqlUwmo1AoDg4OQ9otkZUfETwMrK+vLzMzE1uZaHDns2fPJk+ebMA/RH9//5MnTygUypQpU/RdgUUh7pMuNVQqderUqabWAgLRDyqV+sfL60dGxowZM336dMPa0un0t956y5jeifukCwKBQMgO9LAQCASCF9DDQiAQCF5ADwuBQCB4AT0sBAKB4AWt/FYFAKCu4Wdcu8Fbfl9fH7YCzd+gt/7yDFuZr1M+GcfEAAioku6QWnk8DAyN7MRcpmmhLV64qPxWBaljP9WfdMQWXENtjIwR1gXSjYkBvIZhxA9SK4+HgfX19ZF6QIYErhJAIBAIXkAPC4FAIHgBPSwEAoHgBfSwEAgEghfQw0IgEAheQA8LgUAgeIHNt7Vu3qxoaGhYuTJM38/TEkQ+tqhUqqKiIqFQiCAIg8FYunQpthmS8ZZPHJqbm/l8/tOnTydPnvz++++TLpSnvLy8vr5+9erVpLBbLQiivFKp5PP5tbW1ZmZmM2fOXL58uV6JUI0xISO7RjHWw/b29u7k7jh65AiCIAEBTMwnA2/5mKNQKDgcjkAg8PDwoFKpKSkpLBarsLBQl/SWRJBPHPLz88PDw8eOHTtr1qxHjx5xudycnBwOh2NqvXSit7d3+/bt3377LYIgLBaL+HarCXGUl8lkAQEBjY2Ns2fPfvnyZW1t7YwZM0pKSnR0lMaYkJFdqzHq2kcqlb6zwKu0tDRs1Spj5JhKPh7s37//xx9/vHDhglAorKysvHjx4tWrV1NTU8kinyB0dnZGRUUtWrRIIpEIBAKJRPLOO+9ERUV1dXWZWrWRaW5unjdvnkAgWLNmjal10RtCKR8TEyOXy+/fv3/v3r2ampqioqK6urqkpCStw0Qi0dmzZ7UqjTQhHbseEaM8bENDQwCTWV5xc+ZM/bKDEUQ+HqSnpwcFBQUFBaFFNpvNYrGOHz9OFvkEITc397ffftu3bx/64pC5ufnnn3/e1tbG5/NNrdrI1NfXBwYGVlVVDU5tQnyIo3x/f7+5ufmOHTvc3d3RmpCQkNmzZ9+5c0frSIFAEBcXp1VpjAnp3vWIGLVK4Ovrq5VVHFvwlo85MplMKpVq5cX08fEpKSl5+vSpnZ0dweUTh5s3b44ePdrDw0Nd4+XlZW5ufuPGjcjISJOqNjL+/v5MJtPUWhgIcZSn0+nnz5/XrEEQpLOz09nZWZfmw5tQcnJyQUHBkA1LSkpsbGyM6VoTozws3g9YSPcARyKRDH55Hy2KxWLjPSDe8omDRCJxcHDQNAAzMzM7Ozs0tzHBIZ3dakJM5REEaW5u5vF4LS0tx44d06XJ8CbEYDBe9ehC63sLBnStCQnydJGI7u5uAIBWwjX0QQG6i+DyiUN3d/fgvHWjR4/+g50mRBdycnLCw8NVKpW7u3tZWRmaLFYul8fHx6MHiESijo6O6OhotOjr6xsTEzO8CYWGhoaGhhrWtV4Q8f+KvKDBHAMDA5qVaNGAOI/XL5840Gg0rdNEz/QPdpoQXfD09ExLS9u9ezfqGUtKStBLS8V/USqVmsX+/n6sTGjIrvUC2iuWWFtbAwDa29s1K9va2tB868SXTxysra2bmpq0Ktva2mbMmGEijSAmw8nJacOGDQAALpfr6+u7du1amUw2adKkrKws9IAjR47weDx1EWV4E6qqqkLX3AbD4XDUCwVDdm1ubq678tDDYomrqyuNRnv06JFmZU1NDZ1Od3V1Jb584uDm5lZYWPjbb7+NHz8erWltbf3111/Vz3Yhf3i6urru3r3r5OSk/ro0jUYLDg6uqKioq6ubM2fO8M2HN6G0tLSMjIwhGzY1NY0bN86YrjWBqwRYYmlp6efnx+fz0fsU9AUBPp8fGBiIyeeK8ZZPHDgcjkqlys3NVdecOXMGALBs2TKT6gV5fXR2dvr5+e3du1ezsrq6Wsc7tuFN6MSJE8pXYG9vb2TXmhh1DSsU3paIJQCAmppqAEBR4fkJE6wAACEczuA1ZgLKx4Pk5GR/f/+IiAgul6tSqfbs2dPa2rpr1y6yyCcIixcvZrPZ8fHxlpaWnp6et27d2rlz57JlyxgMhqlVG5nKykr0gfXDhw8BAAUFBVZWVuhCHmHtVg1xlHd0dAwLCzt69KiNjc17772HIEhubm52dnZISIhW2Iy3tzePx9NqbowJ6d71iBjlYY8d/depUyfVxa1btqAbj0R1mEwG3vLxwNvbOzs7e8uWLXPnzkVDqfLy8ry8vMginzhkZWXFxsauW7cOfTqxZs2atLQ0UyulE1p3oOr4ZbFYTFi7VUMo5TMyMuzt7Q8ePPjZZ5+hcVSbN29GtzVxc3Mb8v0IY0xIx65HhIIgSPmtivnzPPVtqTt45+mKXf8R5vfIXC7XmO+MqFQqqVRKoVAcHR0pFMrgA4zM0TSi/MjISKKNiWE8f/78l19+sbW1HTt27OC9pE51RWrl8TCwvr6+zMzMwfUqlerp06cUCsXOzm5Iax+e4U1oeIzsGj7pwgsqlTp16lTyyicO48aNGzdunKm1gJgSKpXq4OBgcHNjTMjIruGTLggEAsER6GEhEAgEL6CHhUAgELyAHhYCgUDwAnpYCAQCwQta+a0KAEDrL8/w68P8DTqu8tE4D2wFKl721zX8jK1MLfCWT8YxMQACqqQ7pFYecwNDI9gwl2laaIsXLiq/VYFrXN5riPvD451RXGN48Y4RJuOYGMBrGEb8ILXyeBhYX18feQOEXwVcJYBAIBC8gB4WAoFA8AJ6WAgEAsEL6GEhEAgEL6CHhUAgELyAHhYCgUDwAptva5WXl9fX169evRrNe4o5eMvHFpVKdbG4+M6dKgRBPDw8g0NC8MiQfPNmRUNDw8qVYaQYE4Pp6uo6f77Ayclp4cJ3TK2LHrweG8AJQimvVCr5fH5tba2ZmdnMmTOXL1+ubzbMrq6uc+fOOTs7L1q0yDAd+vv7z5w5Y2try2az9W1r7MD19vZu2rTJ29s7JiZGK0MfJuAtH3MUCsXSkOBVYSsvXbp05cqV1avClocuffnyJYZd9Pb2fhy3lRUQELt+fUdHB4aSiUZ5+Y0FDM+PPvgg8/uhUyoRk9dgA/hBKOVlMtmsWbPCw8PPnTt35syZsLAwd3d3vd5KuH79+ty5cyMjI9PT0w1WY/fu3VFRUQcOHDCgrVEetrm5ed68eQKBYM2aNcbIMZV8PDiY+kVZWdm5/IIb5RVl12/kny8UCARff/UVVvKlUuk7C7xKS0vDVq3CSiYxOfDPf4YEBYWvXWtmZmZqXfQDbxvAFUIpHxMTI5fL79+/f+/evZqamqKiorq6uqSkJK3DRCLR2bNnBzffu3cvk8mMiIgwxoRu3779xRdfvPnmm4Y1N8rD1tfXBwYGVlVVDZnCwXjwlo8HGd9/H8hmB/73boLFYgUEBHz/neH/n1o0NDQEMJnlFTdnzpyFlUxi8vjxo+JLlz5NJl8KMrxtAFeIo3x/f7+5ufmOHTvUCYZDQkJmz559584drSMFAkFcXNxgCbW1tdeuXTMg9YsahUIRFRUVGRn59ttvGybBqHVYf39/JpNpjATTysecJ0+eyGSy2L/+TbNy8bveV65caWlpmTx5svFd+Pr6+vv7Gy+H+Bw/kU6itUs1r8EG8INQytPp9PPnz2vWIAjS2dnp7Oyso4TMzMxXmVBycnJBQcGQu0pKSmxsbNDtpKSknp6egwcPLl++XE/1/4NRHhbvHwDpfmBNTZLBL+87TnEEAEgkYkwMlHRjYjAkPdPXYAP4QVjlEQRpbm7m8XgtLS3Hjh3TsdUwJsRgMN54440hd6m/t1BWVnb48OHi4uLx48cbpDWAebowpqe7BwCglZJztMVo9S7IHx5S2wAxlc/JyQkPD1epVO7u7mVlZQsXLgQAyOXy+Ph49ACRSNTR0REdHY0WfX19Y2JihpcZGhoaGho6zAHd3d3R0dEbNmwIDAw0RnlSXiYQFjMaDQAwMDCgWYkWzfQMMYGQFFLbADGV9/T0TEtL2717N+oZS0pK0KtaxX9RKpWaxf7+fuM73bZtG5VK/eKLL4yUQ/QpJxfWVlYAgPaO30WVtbe3AQAmWlubTi/I64PUNkBM5Z2cnDZs2IDmk/f19V27dq1MJps0aVJWVhZ6wJEjR3g8nrqoC1VVVRKJZMhdHA7n+vXrJ06cuHDhAoIg3d3d6N8MhULp7u4eNWoUnU7XvSPoYbFkuosLjUYTPX6sWVlbW0un06e7uJhOL8jrg9Q2QCjlu7q67t696+TkpF4XptFowcHBFRUVdXV1c+bMMUZ4WlpaRsbQQdZNTU15eXkDAwNLlizR2jV27Nh9+/YlJibq3hFcJcASS0tLHx+fgvx89X2KQqEoyM8PYDLx+B42hICQ2gYIpXxnZ6efn9/evXs1K6urqwEAEydONFL4iRMnlK/A3t5+x44dwt8zf/58Ly8voVCoXu3VEaOuYSsrK8ViMQDg4cOHAICCggIrKyt0rURrsZyY8vEgicsNYrM/iInevj1RpVKlpPDkcjmXuxMr+ULhbYlYAgCoqakGABQVnp8wwQoAEMLhEHZMDKCnp+dCURG6jSCIWNx4NicHAPDWtLcYDC9TazcCeNsArhBHeUdHx7CwsKNHj9rY2Lz33nsIguTm5mZnZ4eEhNjZ2Wke6e3tzePxtJr39PSog70QBGlsbESXEaZNm7ZgwYLhu54yZYpWtoWxY8fSaDRPT099z8IoD6t1pb1x40Z0QywWY/Jrx1s+Hixe/O7JUz/Eb/vYi+GJWklWdo4ng4GV/GNH/3Xq1El1ceuWLejGI1EdYcfEAORyeVTkX9TF0tLS0tJSAEBExF+I72HxtgFcIZTyGRkZ9vb2Bw8eRN8asLCw2Lx58+A3CNzc3Aa/lNTa2hoeHq4uCgQCgUAAAIiKihrRw2IIBUGQ8lsVixca+E0EXcA7T1dkZCTmtzDbEj4xJoeSSqWSyWQUCsXBwYFCoQw+AO8cTbHrPyLamOABkVNdmdwGjGFE5fEwsL6+vszMzCGVefr0KYVCsbOzG1IZIgOfdOEClUr94+V0g+gFqW2AUMpTqVQHBwdTa2Eg8EkXBAKB4AX0sBAIBIIX0MNCIBAIXkAPC4FAIHgBPSwEAoHgBa38VgUAoK7hZ1y7wVt+X18ftgLN36C3/vIMW5mvUz4Zx8QACKiS7pBaeTwMDI3sxFymaaEtXrio/FYFrnF5ryHuD49X+nCNVsE7RpiMY2IAr2EY8YPUyuNhYH19faQekCGBqwQQCASCF9DDQiAQCF5ADwuBQCB4AT0sBAKB4AX0sBAIBIIX0MNCIBAIXmDzba2bNysaGhpWrgwbPXo0JgJfs3w8KC8vr6+vX716NeY6q1SqoqIioVCIIAiDwVi6dClJE1/rQldX17lz55ydnRctwvEDm5jzB5gj/AxYL5RKJZ/Pr62tNTMzmzlz5vLly2n65GRsbm4uLCyUyWSTJ09mMpmzZs3SseG9e/cePHigVTl79mwPDw991Dfaw/b29u7k7jh65AiCIAEBTMwnA2/5eNDb27t9+/Zvv/0WQRAWi4WtzgqFgsPhCAQCDw8PKpWakpLCYrEKCwtflfyd1Fy/fj0qKkrfDtbbAAAPY0lEQVQsFn/44Yck8rBknyNcDVgvZDJZQEBAY2Pj7NmzX758WVtbO2PGjJKSEh3DZtPT0zdu3GhhYeHi4vLzzz/HxcXt3LkTzVk7IpmZmV9//fWoUaM0KxMSEvT1sEb9r0ql0ncWeJWWloatWmWMHFPJx4Pm5uZ58+YJBII1a9bgIX///v0//vjjhQsXhEJhZWXlxYsXr169mpqaikdfpmXv3r1MJjMiIsLMzMzUuugHqecIbwPWi5iYGLlcfv/+/Xv37tXU1BQVFdXV1SUlJWkdJhKJzp49q1VZV1cXGxvLYrGkUmllZaVUKmWz2Xv27KmtrdWl687OTltbW8Xv+fzzz/U9BaM8bENDQwCTWV5xc+ZMXa+9CSUfD+rr6wMDA6uqqgantcCE9PT0oKCgoKAgtMhms1ks1vHjx/Hoy7TU1tZeu3ZtcMoQ4kPqOcLbgHWnv7/f3Nx8x44d7u7uaE1ISMjs2bPv3LmjdaRAIIiLi9OqfPz4saen5759+9DsShYWFps2bQIACIVCXXrv7OwcP3688Wdh1CqBr6+vv7+/8UqYSj4e+Pv7M5lMnITLZDKpVKrOV4bi4+NTUlLy9OlTrfRwZCczM5N0a5d/gDnC1YD1gk6nq1MZoiAI0tnZ6ezsrEvzZcuWLVu2TLPmxYsXAIAJEyYAAJKTkwsKCoZsWFJSYmNj09nZ+ac//cm4MwDGeli8fwBk/IHhqrNEIhn8cQC0KBaLif/r1Qsyzv4fYI6IOewIgjQ3N/N4vJaWlmPHjhkgQalUpqam2tnZBQYGAgAYDMarlsXR7y10dnaam5snJydfunSpra3NxcVl06ZNISEh+vYL83SRie7ubjSpvWYl+iAC3QUxOXCOMCcnJyc8PFylUrm7u5eVlS1cuBDNRhwfH48eIBKJOjo6oqOj0aKvr29MTIymBKVSuX79eqFQWFxcjDrQ0NDQ0NDQYTrt6OhoamoaP378ypUrX7x4cerUKQ6Hc/To0Q0bNuilPPSwZAKNUxkYGNCsRIt6hbBA8APOEeZ4enqmpaW1tLT8+9//Dg0N/eGHH9hsNoIgCoUCPUCpVGoW+/v7NZs/f/589erVN27cOHfuXEBAgI6dfvfdd6NGjVJHsGzbtm3+/PkJCQmRkZHm5ua6Kw+nnExYW1sDANrb2zUr29raAAATJ040nV6Q/wfOEeY4OTmhV45cLtfX13ft2rUymWzSpElZWVnoAUeOHOHxeOqiJs3NzcHBwc+fP79+/fq8efPU9VVVVeh6zmA4HI6FhYXWE6DRo0dHRkZyudyHDx8yGAzdlYcelky4urrSaLRHjx5pVtbU1NDpdFdXV9PpBfl/4BxhRVdX1927d52cnNRfl6bRaMHBwRUVFXV1dXPmzBlRwrNnz5hMpqWl5e3btydPnqy5Ky0tLSMjY8hWTU1N9vb2g+vRFWoKhaLXWRBxVRvyKiwtLf38/Ph8vvo+SKFQ8Pn8wMBAPL63DTEAOEdY0dnZ6efnt3fvXs3K6upq3e8G/vznP1MolKtXr2q5VwDAiRMnlK/A3t5eJpO5urpqRQpevHjRwsJC97fCUIy6hhUKb0vEEgBATU01AKCo8PyECVYAgBAOR2uln5jy8aCyslIsFgMAHj58CAAoKCiwsrJCV9Yx0Tk5Odnf3z8iIoLL5apUqj179rS2tu7atQsL3QlET0+POlIHQZDGxkb0HnDatGkLFiwwtXYjQOo5wtuAdcfR0TEsLOzo0aM2NjbvvfcegiC5ubnZ2dkhISFaIRne3t48Hk+r+enTp0tLS+Pi4i5fvqxZP336dE9Pz+G7dnBwmDJlCo/HGzNmTEhISFdXV1paWmlp6a5du/R9w80oD3vs6L9OnTqpLm7dsgXdeCSqw2Qy8JaPB1p3H+q4SLFYjInO3t7e2dnZW7ZsmTt3LhoGlJeX5+XlZbxkQtHa2hoeHq4uCgQCgUAAAIiKiiK+hyX1HOFtwHqRkZFhb29/8OBB9HLSwsJi8+bNg19CcXNzG/x+RFlZGQDgq6++0qqPjY0d0cMCAHJzc7du3ZqUlLRt2zb0qnn//v2ffPKJvqdAQRCk/FbF/Hkjd2kweOfpil3/Eeb3X1wul8h5ulQqlVQqpVAojo6OQy4MRUZGkm5MDIDIqa5GnCMiKz8ieBhYX19fZmbm4HqVSvX06VMKhWJnZ6fvMqiR9Pf3P3nyhEKhTJkyxbCu4ZMuUkKlUqdOnWpqLSDDAecIK6hUqoODg0m6ptPpb731ljES4JMuCAQCwQvoYSEQCAQvoIeFQCAQvIAeFgKBQPACelgIBALBC1r5rQo0oArXbvCW39fXh61Axcv+uoafsZWpBd7yyTgmBkBAlXSH1MpjbmBoBBvmMk0LbfHCReW3Klyn6/RRW8N4DXF/eLyPiGsML94xwmQcEwN4DcOIH6RWHg8D6+vrI2+A8KuAqwQQCASCF9DDQiAQCF5ADwuBQCB4AT0sBAKB4AX0sBAIBIIX0MNCIBAIXmDzba3y8vL6+vrVq1fr+3lagsjHg5s3KxoaGlauDMNJZ7zlE4Surq7z5wucnJwWLnzH1LroDUnnSKVSXSwuvnOnCkEQDw/P4JAQE6b4ViqVfD6/trbWzMxs5syZy5cv1yuhpEgkunTpUktLi729/ZIlS1xcXPTqvbGxMS8vr62tbfr06atXrx47dqy++hs7cL29vZs2bfL29o6JidHK/oYJeMvHg97e3o/jtrICAmLXr+/o6CCdfOJQXn5jAcPzow8+yPx+6JRKhIW8c6RQKJaGBK8KW3np0qUrV66sXhW2PHTpy5cvTaKMTCabNWtWeHj4uXPnzpw5ExYW5u7urvtbCSkpKW5ubnv37r127VpycvKsWbNSUlJ07/306dOzZs365ptvKioqNm/ePHPmTDT7g14Y5WGbm5vnzZsnEAjWrFljjBxTyccDqVT6zgKv0tLSsFWryCifOBz45z9DgoLC1641MzMztS76Qeo5Opj6RVlZ2bn8ghvlFWXXb+SfLxQIBF8PyhTweoiJiZHL5ffv3793715NTU1RUVFdXV1SUpLWYSKR6OzZs1qV5eXlO3fu3LBhg0wmq6ysbG5u9vHx+fTTT0UikS5dNzY2xsTErFu3TiwWl5aW1tTU9Pb2JiYm6nsKRnnY+vr6wMDAqqqqwSkcMAFv+XjQ0NAQwGSWV9ycOVO/jGkEkU8cHj9+VHzp0qfJ5EhvpQmp5yjj++8D2exANhstslisgICA779Lf/2a9Pf3m5ub79ixw93dHa0JCQmZPXv2nTt3tI4UCARxcXFalRKJxM/Pj8fjoasKY8aM+cc//oEgyL1793Tp/ZtvvjE3Nz906BD6B//WW2/dvXs3PV3vcTBqHdbf35/JZBojwbTy8cDX11cr0zq55BOH4yfSTbj8ZwzknaMnT57IZLLYv/5Ns3Lxu95XrlxpaWkZnLEVV+h0ujobJgqCIJ2dnc7OOr3iv27dunXr1mnWoMuMaBbF5OTkgoKCIRuWlJTY2NhcunTJ399/zJgx6nrDkh0Y5WHx/gGQ8QcGxwQryHum5NW8qUky+OsTjlMcAQASifg1e1hNEARpbm7m8XgtLS3Hjh3Tt3lPT09paenOnTv9/f29vb0BAAwG44033hjyYAsLi4GBgYaGhtDQ0LS0tK+//loikTg4OPztb3/btm2bvtm6YJ4uCATyH3q6ewAAWjllR1uMVu8yCTk5OeHh4SqVyt3dvaysbOHChQAAuVweHx+PHiASiTo6OqKjo9Gir69vTEyMurm7u3tNTQ2dTt+6dSuPx0NdZGhoaGho6Kt67OjoQGMYbG1t9+3bZ25ufvLkyYSEhK6urj179uilPPSwEAjkP5jRaACAgYEBzUq0aKZPjBS2eHp6pqWltbS0/Pvf/w4NDf3hhx/YbDaCIAqFAj1AqVRqFvv7+zWb7969WyaTPXjw4PDhw42NjadPn37V1asaBEHQb31dunQJjbQLCQlpaWlJTU1NSkoyNzfXXXnoYSEQyH+wtrICALR3/C4ssr29DQAw0draVFo5OTlt2LABzSfv6+u7du1amUw2adKkrKws9IAjR47weDx1UYuwsDB0Y9WqVRwO59ChQwkJCVVVVRKJZMjjORzO2LFjqVSql5eXZiBzcHBwaWlpXV3dnDlzdFceelgIBPIfpru40Gg00ePHmpW1tbV0On26nrH6xtPV1XX37l0nJyf1ujCNRgsODq6oqNDFzdXW1ra2tvr6+qprgoOD6XT6zZs3AQBpaWkZGUMHWTc1Ndnb27u4uLS1tWnWo8vr+q7DknVJHgKBYI6lpaWPj09Bfr76RluhUBTk5wcwmXh80H14Ojs7/fz89u7dq1lZXV0NAJg4ceKIzQ8ePMhkMp88eaKuEYlE/f39kyZNAgCcOHFC+Qrs7e3RK9lbt25pvt1w7do1CwsLV1dXvc7CqGvYyspK9CWHhw8fAgAKCgqsrKzQVWStxXJiyscDofC2RCwBANTUVAMAigrPT5hgBQAI4XAw0Rlv+QShp6fnQlERuo0giFjceDYnBwDw1rS3GAwvU2s3AqSeoyQuN4jN/iAmevv2RJVKlZLCk8vlXO7O16+Jo6NjWFjY0aNHbWxs3nvvPQRBcnNzs7OzQ0JC0IgrNd7e3jweT6v53//+99OnT3M4nJSUFGdn54aGhqSkJDMzM82HYMMQHx//3XffhYaGfvPNNzY2NhkZGRcvXvzkk09GjRql11kY5WG1rrQ3btyIbojFYkwsCW/5eHDs6L9OnTqpLm7dsgXdeCSqw0RnvOUTBLlcHhX5F3WxtLS0tLQUABAR8Rfie1hSz9Hixe+ePPVD/LaPvRieqJvLys7xZDBMokxGRoa9vf3Bgwc/++wzNI5q8+bN6LYmbm5ug19K8vDwKCws3L59+9KlS9GauXPnXrhwAQ1FGJHJkydfvnx5/fr1fn5+aNfbtm3T66VbFAqCIOW3KhYvXKRvS93BO09XZGQk5rcw2xI+IXWertj1H5FuTAyA1KmuiKy8SqWSyWQUCsXBwWHIlUc8DKyvry8zM3NIZZ4+fUqhUOzs7PRdBgUAdHd3P3v2bPLkyYb9vbW0tHR3d0+ZMkXfq1cU+KQLAoFoQ6VSiZOUkEqlOjg4GNx8zJgx06dPN7i5ke9ZwCddEAgEghfQw0IgEAheQA8LgUAgeAE9LAQCgeAF9LAQCASCF7TyWxVoQBWu3eAtv6+vD3OZUqkUc5mvUz4Zx8QACKiS7pBaeTwMDG9H8fr5Pz6WTPIiPY0fAAAAAElFTkSuQmCC;" vertex="1" parent="1">
                    <mxGeometry x="-170" y="70" width="459" height="481" as="geometry"/>
                </mxCell>
            </root>
        </mxGraphModel>
    </diagram>
</mxfile>